<?xml version="1.0" standalone="no"?>
<!DOCTYPE svg PUBLIC "-//W3C//DTD SVG 20010904//EN"
 "http://www.w3.org/TR/2001/REC-SVG-20010904/DTD/svg10.dtd">
<svg version="1.0" xmlns="http://www.w3.org/2000/svg"
 width="360.000000pt" height="360.000000pt" viewBox="0 0 360.000000 360.000000"
 preserveAspectRatio="xMidYMid meet">

<g transform="translate(0.000000,360.000000) scale(0.100000,-0.100000)"
fill="#000000" stroke="none">
<path d="M1745 3218 c-43 -23 -79 -67 -126 -153 -61 -110 -100 -163 -159 -214
-29 -25 -60 -66 -85 -116 -22 -42 -45 -81 -52 -86 -6 -6 -19 -32 -28 -59 -9
-26 -22 -51 -30 -54 -8 -3 -28 -31 -45 -63 -59 -111 -152 -243 -237 -335 -24
-26 -43 -53 -43 -61 0 -7 -15 -29 -33 -48 -39 -40 -118 -143 -137 -179 -7 -14
-53 -77 -100 -141 -48 -63 -100 -137 -114 -165 -15 -27 -40 -69 -56 -94 -26
-41 -120 -226 -183 -360 -14 -30 -40 -95 -58 -145 -17 -49 -42 -99 -54 -110
-33 -30 -50 -81 -37 -110 29 -64 109 -73 362 -42 182 23 632 34 995 25 843
-21 973 -21 1140 -2 93 10 237 18 345 18 l185 1 112 -56 c135 -69 208 -82 261
-50 32 20 32 22 32 97 0 73 -2 79 -44 143 -23 36 -50 80 -58 96 -18 36 -35 70
-149 295 -104 202 -125 239 -165 283 -53 58 -91 112 -128 183 -20 38 -49 88
-64 111 -39 61 -88 134 -112 168 -12 17 -30 44 -41 60 -10 17 -34 50 -53 75
-34 44 -116 180 -151 250 -17 33 -57 86 -193 257 -31 39 -92 107 -134 150 -42
43 -139 142 -215 219 -96 99 -149 146 -175 155 -21 7 -38 17 -38 21 0 14 -64
48 -90 48 -14 0 -34 -6 -45 -12z m220 -387 c17 -18 61 -65 98 -104 37 -39 80
-87 95 -108 37 -52 118 -152 173 -216 26 -30 57 -68 68 -86 26 -39 130 -221
128 -224 -3 -2 -229 47 -236 52 -4 2 -27 6 -51 10 -25 4 -72 17 -106 31 -33
13 -68 24 -78 24 -9 0 -33 7 -53 15 -108 46 -357 40 -466 -9 -30 -14 -60 -26
-65 -26 -5 0 -17 -9 -26 -19 -10 -11 -30 -22 -44 -26 -15 -3 -55 -24 -90 -46
-35 -21 -66 -39 -68 -39 -3 0 -26 -16 -50 -36 -25 -20 -47 -34 -51 -30 -3 3
-2 6 4 6 20 0 191 236 249 345 14 28 33 54 40 58 8 4 23 25 33 45 11 20 40 64
65 96 26 32 49 71 53 85 3 14 36 55 72 91 67 66 89 96 137 185 49 93 51 93 98
21 23 -34 55 -77 71 -95z m-543 -898 c-25 -54 -27 -67 -27 -198 0 -100 4 -147
14 -165 11 -20 6 -18 -25 12 -82 77 -103 94 -140 112 -22 11 -69 39 -105 63
-37 24 -75 43 -85 43 -39 0 -46 15 -22 46 28 36 42 46 46 34 7 -18 32 -10 32
10 0 11 -5 20 -11 20 -8 0 -7 5 2 16 11 14 13 14 21 0 5 -9 6 -21 3 -26 -4 -6
-3 -10 2 -9 4 1 16 -1 26 -6 23 -10 82 2 97 20 6 7 26 17 43 20 31 6 76 24
127 51 14 8 26 14 27 14 1 0 -10 -26 -25 -57z m325 17 c16 -43 64 -60 165 -60
97 0 154 -13 168 -40 17 -31 12 -117 -9 -158 -22 -43 -79 -99 -133 -131 -30
-18 -55 -23 -125 -24 -122 -3 -136 3 -162 62 -16 38 -21 69 -20 133 1 138 11
177 54 215 21 18 41 33 44 33 4 0 12 -14 18 -30z m631 -54 c15 -8 61 -29 102
-46 41 -18 91 -41 111 -51 20 -11 44 -19 53 -19 55 0 -38 -111 -141 -167 -123
-67 -195 -100 -235 -106 -35 -5 -50 4 -29 17 5 4 28 40 51 82 l41 75 -3 97
c-2 53 -7 105 -12 115 -6 13 -4 17 14 17 12 0 34 -6 48 -14z m-1312 -315 c41
-42 74 -79 74 -83 0 -7 221 -210 270 -247 18 -13 70 -37 117 -53 98 -33 203
-37 324 -14 41 8 115 19 164 26 116 15 181 28 228 46 20 8 52 14 70 14 30 1
128 45 316 146 73 38 167 121 201 176 l16 27 22 -44 c12 -24 49 -80 84 -125
35 -45 76 -100 91 -122 34 -49 137 -253 137 -271 0 -8 11 -31 25 -51 14 -20
25 -38 25 -39 0 -1 -93 -2 -207 -2 -133 -1 -267 -8 -372 -19 -171 -19 -249
-19 -1116 2 -315 8 -827 -2 -969 -18 -54 -6 -100 -10 -102 -8 -5 5 74 160 114
224 17 28 41 70 52 95 12 24 34 64 50 89 16 25 41 67 55 94 15 26 70 106 123
177 l97 129 18 -37 c11 -20 52 -70 93 -112z"/>
</g>
</svg>
