<?xml version="1.0" encoding="UTF-8"?>
<!DOCTYPE svg PUBLIC "-//W3C//DTD SVG 1.1//EN" "http://www.w3.org/Graphics/SVG/1.1/DTD/svg11.dtd">
<svg xmlns="http://www.w3.org/2000/svg" version="1.1" width="1440px" height="1008px" style="shape-rendering:geometricPrecision; text-rendering:geometricPrecision; image-rendering:optimizeQuality; fill-rule:evenodd; clip-rule:evenodd" xmlns:xlink="http://www.w3.org/1999/xlink">
<g><path style="opacity:1" fill="#000000" d="M 684.5,3.5 C 821.935,-3.52231 942.935,36.9777 1047.5,125C 1149.93,215.694 1207.1,330.194 1219,468.5C 1226.56,606.477 1185.9,727.81 1097,832.5C 987.803,952.937 850.97,1009.77 686.5,1003C 534.578,989.828 412.412,923.995 320,805.5C 228.69,679.97 199.357,540.97 232,388.5C 268.688,246.304 349.855,138.804 475.5,66C 540.752,30.1075 610.419,9.27417 684.5,3.5 Z M 699.5,12.5 C 704.5,12.5 709.5,12.5 714.5,12.5C 714.5,45.8333 714.5,79.1667 714.5,112.5C 686.098,112.558 658.098,115.891 630.5,122.5C 624.053,100.38 618.387,78.047 613.5,55.5C 556.936,82.1982 500.769,109.865 445,138.5C 444.582,140.788 445.249,142.788 447,144.5C 458.833,160.333 470.667,176.167 482.5,192C 469.95,200.877 458.283,210.877 447.5,222C 446.833,222.667 446.167,222.667 445.5,222C 422.5,199 399.5,176 376.5,153C 466.525,66.3545 574.192,19.5212 699.5,12.5 Z M 724.5,12.5 C 855.798,15.6816 968.465,62.5149 1062.5,153C 1039.32,176.347 1015.99,199.514 992.5,222.5C 917.562,151.719 828.229,115.052 724.5,112.5C 724.5,79.1667 724.5,45.8333 724.5,12.5 Z M 707.5,122.5 C 709.833,122.5 712.167,122.5 714.5,122.5C 714.5,155.833 714.5,189.167 714.5,222.5C 695.236,222.783 676.236,225.116 657.5,229.5C 648.397,197.423 640.064,165.09 632.5,132.5C 657.41,127.429 682.41,124.096 707.5,122.5 Z M 724.5,122.5 C 825.422,125.502 912.089,161.669 984.5,231C 961.32,254.347 937.986,277.514 914.5,300.5C 901.872,288.696 888.538,277.862 874.5,268C 882.255,254.578 890.422,241.412 899,228.5C 899.781,227.056 899.614,225.723 898.5,224.5C 872.833,210.333 847.167,196.167 821.5,182C 820.216,181.316 819.049,181.483 818,182.5C 812.65,200.052 806.816,217.385 800.5,234.5C 775.751,226.869 750.418,222.869 724.5,222.5C 724.5,189.167 724.5,155.833 724.5,122.5 Z M 368.5,160.5 C 392.146,183.479 415.479,206.812 438.5,230.5C 367.695,305.491 331.028,394.824 328.5,498.5C 295.167,498.5 261.833,498.5 228.5,498.5C 231.78,367.344 278.446,254.678 368.5,160.5 Z M 1069.5,160.5 C 1147.09,240.033 1192.93,335.366 1207,446.5C 1208.94,463.783 1210.11,481.116 1210.5,498.5C 1177.17,498.5 1143.83,498.5 1110.5,498.5C 1107.95,394.79 1071.29,305.456 1000.5,230.5C 1023.52,207.146 1046.52,183.812 1069.5,160.5 Z M 488.5,200.5 C 508.146,227.099 527.812,253.766 547.5,280.5C 539.859,287.138 532.192,293.804 524.5,300.5C 501.014,277.514 477.68,254.347 454.5,231C 465.432,220.227 476.765,210.06 488.5,200.5 Z M 697.5,233.5 C 703.167,233.5 708.833,233.5 714.5,233.5C 714.5,266.5 714.5,299.5 714.5,332.5C 704.368,332.936 694.368,334.269 684.5,336.5C 683.914,336.291 683.414,335.957 683,335.5C 674.848,303.558 667.014,271.558 659.5,239.5C 672.23,237.044 684.897,235.044 697.5,233.5 Z M 724.5,233.5 C 748.677,233.529 772.343,237.029 795.5,244C 796.428,244.388 797.095,245.055 797.5,246C 787.333,277.167 777.167,308.333 767,339.5C 753.164,335.356 738.998,333.023 724.5,332.5C 724.5,299.5 724.5,266.5 724.5,233.5 Z M 446.5,238.5 C 470.146,261.479 493.479,284.812 516.5,308.5C 487.105,339.596 465.605,375.596 452,416.5C 451.439,417.022 450.772,417.355 450,417.5C 418.481,408.491 387.314,398.824 356.5,388.5C 375.312,331.502 405.312,281.502 446.5,238.5 Z M 991.5,238.5 C 1052.69,300.893 1088.19,375.893 1098,463.5C 1098.93,475.171 1099.77,486.838 1100.5,498.5C 1067.17,498.5 1033.83,498.5 1000.5,498.5C 998.148,425.17 972.148,361.836 922.5,308.5C 945.521,285.146 968.521,261.812 991.5,238.5 Z M 867.5,277.5 C 881.494,286.649 894.494,297.149 906.5,309C 883.32,332.347 859.986,355.514 836.5,378.5C 829.79,372.454 822.79,366.788 815.5,361.5C 832.855,333.444 850.189,305.444 867.5,277.5 Z M 553.5,289.5 C 573.637,315.816 593.637,342.316 613.5,369C 609.868,371.63 606.535,374.63 603.5,378C 602.833,378.667 602.167,378.667 601.5,378C 578.5,355 555.5,332 532.5,309C 539.193,302.019 546.193,295.519 553.5,289.5 Z M 524.5,316.5 C 547.799,339.298 570.965,362.298 594,385.5C 594.667,386.167 594.667,386.833 594,387.5C 577.233,405.467 564.733,426.134 556.5,449.5C 525.245,439.853 493.911,430.52 462.5,421.5C 474.935,381.453 495.602,346.453 524.5,316.5 Z M 913.5,316.5 C 962.358,367.007 987.691,427.673 989.5,498.5C 956.26,498.829 923.093,498.496 890,497.5C 888.042,454.939 872.876,417.939 844.5,386.5C 867.521,363.146 890.521,339.812 913.5,316.5 Z M 704.5,343.5 C 707.833,343.5 711.167,343.5 714.5,343.5C 714.5,376.833 714.5,410.167 714.5,443.5C 712.833,443.5 711.167,443.5 709.5,443.5C 702.046,411.183 694.046,379.016 685.5,347C 691.972,345.813 698.306,344.646 704.5,343.5 Z M 724.5,343.5 C 737.054,343.814 749.387,345.648 761.5,349C 762.428,349.388 763.095,350.055 763.5,351C 753.667,381.167 743.833,411.333 734,441.5C 731.196,443.344 728.03,444.011 724.5,443.5C 724.5,410.167 724.5,376.833 724.5,343.5 Z M 808.5,371.5 C 815.843,375.663 822.51,380.829 828.5,387C 805.333,410.167 782.167,433.333 759,456.5C 758.25,455.874 757.416,455.374 756.5,455C 773.98,427.195 791.314,399.361 808.5,371.5 Z M 667.5,443.5 C 648.188,424.854 629.188,405.854 610.5,386.5C 613.52,383.645 616.687,380.979 620,378.5C 636.341,399.871 652.174,421.537 667.5,443.5 Z M 602.5,394.5 C 625.799,417.298 648.965,440.298 672,463.5C 668.996,468.496 666.163,473.829 663.5,479.5C 662.277,480.614 660.944,480.781 659.5,480C 628.73,470.975 598.063,461.641 567.5,452C 575.327,430.374 586.994,411.207 602.5,394.5 Z M 835.5,394.5 C 863.252,423.369 877.918,458.035 879.5,498.5C 853.498,498.667 827.498,498.5 801.5,498C 815.49,496.025 829.49,494.192 843.5,492.5C 841.031,478.123 837.697,463.956 833.5,450C 813.27,457.271 793.27,465.438 773.5,474.5C 771.167,471.167 768.833,467.833 766.5,464.5C 789.521,441.146 812.521,417.812 835.5,394.5 Z M 343.5,441.5 C 344.497,460.326 344.83,479.326 344.5,498.5C 342.5,498.5 340.5,498.5 338.5,498.5C 339.385,479.436 341.051,460.436 343.5,441.5 Z M 712.5,453.5 C 713.693,453.97 714.36,454.97 714.5,456.5C 714.333,457.5 714.167,458.5 714,459.5C 713.495,457.482 712.995,455.482 712.5,453.5 Z M 724.5,453.5 C 726.665,453.116 728.332,453.783 729.5,455.5C 727.901,459.796 726.401,464.129 725,468.5C 724.501,463.511 724.334,458.511 724.5,453.5 Z M 679.5,472.5 C 686.577,478.071 693.244,484.238 699.5,491C 690.75,489.311 682.083,486.978 673.5,484C 675.638,480.223 677.638,476.39 679.5,472.5 Z M 744.5,486.5 C 748.63,481.869 752.963,477.369 757.5,473C 759.851,473.863 761.518,475.697 762.5,478.5C 756.745,481.711 750.745,484.378 744.5,486.5 Z M 228.5,508.5 C 261.833,508.5 295.167,508.5 328.5,508.5C 331.029,612.177 367.696,701.511 438.5,776.5C 415.514,799.986 392.347,823.32 369,846.5C 278.524,752.48 231.691,639.814 228.5,508.5 Z M 338.5,508.5 C 340.5,508.5 342.5,508.5 344.5,508.5C 345.798,584.285 343.798,584.285 338.5,508.5 Z M 735.5,509.5 C 746.321,508.505 757.321,508.172 768.5,508.5C 767.903,516.458 765.403,523.791 761,530.5C 752.626,523.288 744.126,516.288 735.5,509.5 Z M 779.5,508.5 C 812.833,508.5 846.167,508.5 879.5,508.5C 878.17,542.502 867.17,572.835 846.5,599.5C 820.688,578.856 795.022,558.023 769.5,537C 775.314,528.393 778.647,518.893 779.5,508.5 Z M 890.5,508.5 C 923.5,508.5 956.5,508.5 989.5,508.5C 988.067,568.975 968.9,622.975 932,670.5C 906.223,649.691 880.723,628.524 855.5,607C 877.178,577.793 888.845,544.96 890.5,508.5 Z M 1000.5,508.5 C 1033.83,508.5 1067.17,508.5 1100.5,508.5C 1097.95,594.842 1070.28,671.842 1017.5,739.5C 991.688,718.856 966.022,698.023 940.5,677C 978.806,627.595 998.806,571.428 1000.5,508.5 Z M 1110.5,508.5 C 1143.83,508.5 1177.17,508.5 1210.5,508.5C 1206.97,639.675 1160.14,752.341 1070,846.5C 1060.65,837.319 1051.49,827.986 1042.5,818.5C 1052.15,808.347 1061.99,798.347 1072,788.5C 1072.67,787.167 1072.67,785.833 1072,784.5C 1056.59,771.88 1041.09,759.38 1025.5,747C 1080.66,677.374 1108.99,597.874 1110.5,508.5 Z M 710.5,519.5 C 711.043,519.56 711.376,519.893 711.5,520.5C 709.185,530.388 707.519,540.388 706.5,550.5C 699.818,549.327 694.151,546.327 689.5,541.5C 696.521,534.146 703.521,526.813 710.5,519.5 Z M 729.5,527.5 C 734.636,533.478 739.636,539.645 744.5,546C 740.658,548.002 736.658,549.502 732.5,550.5C 731.609,542.819 730.609,535.152 729.5,527.5 Z M 656.5,528.5 C 630.05,542.226 603.383,555.726 576.5,569C 573.936,569.45 572.436,568.284 572,565.5C 570.694,562.388 569.528,559.221 568.5,556C 568.645,555.228 568.978,554.561 569.5,554C 598.383,545.03 627.383,536.53 656.5,528.5 Z M 680.5,549.5 C 687.749,554.959 695.749,559.126 704.5,562C 698.352,594.384 692.686,626.884 687.5,659.5C 657.946,653.724 632.28,640.557 610.5,620C 634.035,596.632 657.368,573.132 680.5,549.5 Z M 659.5,555.5 C 640.868,574.632 622.035,593.632 603,612.5C 599.796,609.631 596.963,606.465 594.5,603C 615.871,586.659 637.537,570.826 659.5,555.5 Z M 748.5,555.5 C 749.822,555.33 750.989,555.663 752,556.5C 770.923,582.678 790.089,608.678 809.5,634.5C 792.254,647.478 772.92,655.811 751.5,659.5C 746.314,626.884 740.648,594.384 734.5,562C 739.601,560.481 744.268,558.314 748.5,555.5 Z M 555.5,557.5 C 556.376,557.369 557.043,557.702 557.5,558.5C 559.545,564.14 561.879,569.64 564.5,575C 545.833,584.333 527.167,593.667 508.5,603C 507.483,604.049 507.316,605.216 508,606.5C 517.385,618.217 526.385,630.217 535,642.5C 536.726,643.576 538.559,643.743 540.5,643C 555.423,631.955 570.256,620.788 585,609.5C 588.639,612.793 591.806,616.46 594.5,620.5C 571.514,643.986 548.347,667.32 525,690.5C 495.989,660.496 475.156,625.496 462.5,585.5C 493.737,576.612 524.737,567.279 555.5,557.5 Z M 448.5,589.5 C 449.833,589.5 451.167,589.5 452.5,589.5C 465.376,630.936 486.709,667.269 516.5,698.5C 493.514,721.986 470.347,745.32 447,768.5C 405.39,725.65 375.223,675.65 356.5,618.5C 357.381,617.029 358.714,616.196 360.5,616C 390.043,607.453 419.377,598.62 448.5,589.5 Z M 601.5,628.5 C 612.716,637.2 624.382,645.367 636.5,653C 652.143,661.047 668.476,667.213 685.5,671.5C 679.787,703.114 674.287,734.78 669,766.5C 668.481,767.516 667.647,768.182 666.5,768.5C 614.823,757.833 570.157,734.333 532.5,698C 555.702,674.965 578.702,651.799 601.5,628.5 Z M 815.5,644.5 C 817.193,645.475 818.693,646.808 820,648.5C 838.5,673.667 857,698.833 875.5,724C 844.338,745.908 810.005,760.741 772.5,768.5C 771.353,768.182 770.519,767.516 770,766.5C 764.713,734.78 759.213,703.114 753.5,671.5C 775.941,666.272 796.608,657.272 815.5,644.5 Z M 523.5,706.5 C 541.203,722.024 560.203,735.858 580.5,748C 606.801,762.812 634.801,773.145 664.5,779C 666.192,780.401 666.859,782.234 666.5,784.5C 682.5,784.5 698.5,784.5 714.5,784.5C 714.5,817.5 714.5,850.5 714.5,883.5C 613.67,881.079 527.003,845.246 454.5,776C 477.702,752.965 500.702,729.799 523.5,706.5 Z M 881.5,732.5 C 901.634,758.743 921.3,785.41 940.5,812.5C 876.085,858.526 804.085,882.193 724.5,883.5C 724.5,850.5 724.5,817.5 724.5,784.5C 740.5,784.5 756.5,784.5 772.5,784.5C 772.141,782.234 772.808,780.401 774.5,779C 813.803,771.308 849.47,755.808 881.5,732.5 Z M 445.5,784.5 C 465.796,802.291 487.13,818.791 509.5,834C 572.155,873.048 640.489,893.215 714.5,894.5C 714.5,927.833 714.5,961.167 714.5,994.5C 583.317,990.973 470.651,944.14 376.5,854C 399.702,830.965 422.702,807.799 445.5,784.5 Z M 946.5,821.5 C 959.786,838.462 973.119,855.462 986.5,872.5C 1002.59,857.908 1018.26,842.741 1033.5,827C 1034.17,826.333 1034.83,826.333 1035.5,827C 1044.5,836 1053.5,845 1062.5,854C 968.349,944.14 855.683,990.973 724.5,994.5C 724.5,961.167 724.5,927.833 724.5,894.5C 806.425,893.302 880.425,868.968 946.5,821.5 Z"/></g>
</svg>
