<?xml version="1.0" standalone="no"?>
<!DOCTYPE svg PUBLIC "-//W3C//DTD SVG 20010904//EN"
 "http://www.w3.org/TR/2001/REC-SVG-20010904/DTD/svg10.dtd">
<svg version="1.0" xmlns="http://www.w3.org/2000/svg"
 width="360.000000pt" height="360.000000pt" viewBox="0 0 360.000000 360.000000"
 preserveAspectRatio="xMidYMid meet">

<g transform="translate(0.000000,360.000000) scale(0.100000,-0.100000)"
fill="#000000" stroke="none">
<path d="M965 3103 c-91 -46 -218 -162 -288 -266 -13 -19 -31 -43 -40 -52 -9
-8 -24 -40 -33 -70 -10 -30 -21 -55 -25 -55 -4 0 -15 -21 -24 -47 -10 -27 -25
-66 -35 -88 -34 -76 -52 -157 -52 -243 -1 -119 13 -162 80 -244 47 -56 72 -76
137 -110 44 -23 107 -47 140 -55 66 -14 435 -54 445 -48 4 2 44 7 91 10 111 7
155 14 197 32 19 8 35 13 37 11 1 -2 10 -19 20 -38 10 -19 38 -57 62 -84 25
-28 51 -64 60 -80 9 -17 32 -49 52 -71 20 -23 61 -74 91 -114 30 -40 71 -92
91 -115 20 -22 42 -52 49 -66 7 -14 46 -68 85 -120 40 -53 85 -118 99 -145
107 -198 229 -372 325 -465 50 -48 74 -63 127 -80 74 -22 137 -25 174 -7 14 7
58 36 98 66 67 49 78 63 118 143 30 60 44 100 44 128 0 46 -36 124 -72 156
-12 12 -41 51 -63 88 -22 37 -74 113 -117 170 -42 57 -91 132 -108 167 -18 35
-47 82 -65 104 -18 22 -49 72 -69 110 -20 39 -49 89 -64 112 -15 23 -40 62
-57 87 -112 172 -210 276 -308 327 -37 19 -38 21 -23 42 36 49 104 195 114
244 44 203 -95 432 -333 550 -227 112 -422 126 -663 47 -23 -8 -44 -14 -45
-14 -2 0 -1 16 1 35 4 30 0 37 -29 54 -50 31 -157 28 -224 -6z m192 -102 c19
-1 20 -4 10 -30 -8 -23 -7 -34 6 -54 18 -28 57 -35 223 -36 55 -1 125 -8 155
-16 30 -8 83 -22 119 -31 140 -34 257 -107 320 -201 26 -38 31 -55 32 -112 2
-56 -3 -75 -29 -127 -68 -131 -249 -250 -428 -280 -22 -4 -49 -11 -59 -17 -17
-8 -146 -28 -186 -28 -8 -1 -39 -5 -69 -11 -102 -19 -382 18 -471 62 -86 44
-114 75 -134 151 l-18 67 28 103 c15 57 37 124 50 149 13 25 24 50 24 55 0 17
80 136 126 188 89 100 204 178 253 172 14 -1 36 -3 48 -4z m847 -996 c9 -14
46 -48 82 -77 62 -48 119 -116 189 -224 17 -25 42 -64 57 -87 15 -23 44 -73
64 -112 20 -38 51 -88 69 -110 18 -22 47 -69 65 -104 17 -35 66 -110 108 -167
43 -57 95 -133 117 -169 22 -36 51 -82 64 -103 l24 -37 -24 -45 c-21 -40 -28
-45 -61 -48 -34 -3 -43 2 -90 51 -29 29 -66 74 -82 98 -16 24 -41 61 -55 82
-30 43 -88 140 -127 212 -14 27 -59 92 -99 145 -39 52 -78 106 -85 120 -14 27
-75 108 -131 173 -45 53 -125 157 -163 211 -15 22 -46 62 -67 88 l-39 47 72
39 c40 22 78 40 84 41 7 0 19 -10 28 -24z"/>
</g>
</svg>
