<?xml version="1.0" standalone="no"?>
<!DOCTYPE svg PUBLIC "-//W3C//DTD SVG 20010904//EN"
 "http://www.w3.org/TR/2001/REC-SVG-20010904/DTD/svg10.dtd">
<svg version="1.0" xmlns="http://www.w3.org/2000/svg"
 width="1008.000000pt" height="1008.000000pt" viewBox="0 0 1008.000000 1008.000000"
 preserveAspectRatio="xMidYMid meet">

<g transform="translate(0.000000,1008.000000) scale(0.100000,-0.100000)"
fill="#000000" stroke="none">
<path d="M7441 9220 c-188 -32 -345 -61 -348 -63 -5 -6 542 -3285 550 -3294 4
-3 167 20 362 53 l355 59 -1 25 c0 14 -123 756 -273 1650 -211 1261 -275 1625
-287 1627 -8 0 -169 -25 -358 -57z"/>
<path d="M5253 8332 c-161 -114 -292 -212 -293 -218 0 -12 1935 -2715 1945
-2716 16 -2 594 418 591 428 -7 17 -1936 2709 -1944 2711 -4 2 -138 -90 -299
-205z"/>
<path d="M3906 6978 c-8 -13 -93 -153 -190 -313 -154 -256 -172 -291 -158
-301 54 -37 2827 -1707 2841 -1711 12 -3 62 71 204 308 103 171 187 312 185
314 -12 10 -2858 1725 -2862 1725 -3 0 -12 -10 -20 -22z"/>
<path d="M3130 5342 c-5 -20 -50 -179 -99 -352 -78 -278 -87 -316 -72 -323 20
-9 3204 -907 3207 -904 9 10 196 698 191 703 -5 5 -2598 741 -3129 888 l-88
24 -10 -36z"/>
<path d="M1720 2570 l0 -1770 2770 0 2770 0 0 1765 0 1765 -345 0 -345 0 0
-1415 0 -1415 -2116 0 -2116 0 6 73 c3 39 8 585 11 1212 3 627 8 1233 11 1348
l7 207 -327 0 -326 0 0 -1770z"/>
<path d="M2836 3918 c-14 -64 -68 -700 -60 -707 11 -9 3311 -327 3319 -319 6
5 77 719 73 723 -2 2 -734 73 -1628 159 -894 86 -1642 159 -1662 162 -33 5
-38 3 -42 -18z"/>
<path d="M2760 2310 l0 -360 1665 0 1665 0 0 360 0 360 -1665 0 -1665 0 0
-360z"/>
</g>
</svg>
