<?xml version="1.0" standalone="no"?>
<!DOCTYPE svg PUBLIC "-//W3C//DTD SVG 20010904//EN"
 "http://www.w3.org/TR/2001/REC-SVG-20010904/DTD/svg10.dtd">
<svg version="1.0" xmlns="http://www.w3.org/2000/svg"
 width="1260.000000pt" height="1008.000000pt" viewBox="0 0 1260.000000 1008.000000"
 preserveAspectRatio="xMidYMid meet">

<g transform="translate(0.000000,1008.000000) scale(0.100000,-0.100000)"
fill="#000000" stroke="none">
<path d="M2355 10070 c-3 -5 -16 -10 -28 -10 -24 -1 -123 -33 -134 -44 -3 -3
-17 -6 -30 -6 -12 0 -23 -4 -23 -9 0 -5 -12 -12 -27 -16 -15 -3 -30 -10 -33
-13 -3 -4 -25 -17 -50 -30 -49 -25 -77 -41 -97 -57 -7 -5 -33 -26 -59 -45 -79
-59 -195 -179 -244 -250 -8 -13 -20 -28 -26 -34 -5 -6 -13 -18 -17 -26 -19
-39 -34 -59 -39 -54 -4 3 -9 -8 -13 -25 -4 -17 -11 -31 -16 -31 -5 0 -9 -4 -9
-10 0 -16 -34 -90 -41 -90 -4 0 -10 -18 -14 -40 -4 -22 -10 -40 -15 -40 -4 0
-11 -22 -15 -50 -4 -27 -11 -52 -15 -55 -5 -3 -11 -39 -15 -80 -4 -42 -11 -78
-16 -81 -5 -3 -9 -241 -9 -537 0 -293 -4 -526 -9 -519 -4 7 -11 -79 -15 -195
-4 -114 -10 -210 -15 -213 -4 -3 -11 -59 -15 -124 -4 -65 -11 -126 -16 -135
-5 -9 -13 -54 -19 -101 -7 -47 -14 -104 -17 -127 -3 -24 -10 -43 -14 -43 -4 0
-11 -34 -15 -75 -4 -41 -10 -75 -15 -75 -4 0 -10 -27 -14 -60 -4 -33 -11 -62
-16 -65 -6 -4 -10 -17 -10 -31 0 -13 -4 -24 -9 -24 -5 0 -12 -25 -16 -55 -3
-30 -10 -55 -15 -55 -4 0 -11 -20 -14 -45 -4 -24 -11 -47 -17 -50 -5 -4 -9
-14 -9 -23 0 -9 -7 -30 -15 -46 -8 -15 -15 -35 -15 -42 0 -8 -4 -14 -9 -14 -5
0 -12 -18 -16 -40 -4 -22 -11 -40 -16 -40 -5 0 -9 -7 -9 -15 0 -15 -60 -136
-72 -145 -3 -3 -10 -18 -13 -33 -4 -15 -11 -27 -15 -27 -4 0 -11 -11 -14 -25
-4 -14 -11 -25 -16 -25 -6 0 -10 -5 -10 -11 0 -6 -6 -17 -13 -24 -28 -33 -37
-45 -37 -53 0 -5 -9 -20 -20 -33 -66 -78 -117 -134 -134 -148 -10 -9 -37 -35
-60 -58 -44 -42 -176 -133 -195 -133 -6 0 -11 -4 -11 -10 0 -5 -7 -10 -16 -10
-8 0 -34 -10 -57 -23 -53 -30 -196 -70 -299 -84 l-38 -5 0 -338 0 -338 38 -5
c103 -14 246 -54 299 -84 23 -13 49 -23 57 -23 9 0 16 -4 16 -10 0 -5 5 -10
10 -10 18 0 140 -81 140 -93 0 -5 3 -8 6 -4 4 3 26 -13 50 -36 23 -23 55 -54
71 -69 27 -25 82 -87 123 -137 11 -13 20 -28 20 -33 0 -5 6 -16 13 -23 29 -33
37 -45 37 -55 0 -5 4 -10 10 -10 5 0 12 -11 16 -25 3 -14 10 -25 14 -25 4 0
11 -12 15 -27 3 -15 10 -30 13 -33 12 -9 72 -130 72 -145 0 -8 4 -15 9 -15 5
0 12 -18 16 -40 4 -22 11 -40 16 -40 5 0 9 -6 9 -14 0 -7 7 -27 15 -42 8 -16
15 -37 15 -46 0 -9 4 -19 9 -23 6 -3 13 -26 17 -50 3 -25 10 -45 14 -45 5 0
12 -25 15 -55 4 -30 11 -55 16 -55 5 0 9 -11 9 -24 0 -14 4 -27 10 -31 5 -3
12 -32 16 -65 4 -33 10 -60 14 -60 5 0 11 -34 15 -75 4 -41 11 -75 15 -75 4 0
11 -19 14 -42 3 -24 10 -81 17 -128 6 -47 14 -92 19 -101 5 -9 12 -70 16 -135
4 -65 11 -121 15 -124 5 -3 11 -99 15 -213 4 -116 11 -202 15 -195 5 7 9 -226
9 -519 0 -296 4 -534 9 -537 5 -3 12 -39 16 -81 4 -41 10 -77 15 -80 4 -3 11
-28 15 -55 4 -28 11 -50 15 -50 5 0 11 -18 15 -40 4 -22 10 -40 14 -40 6 0 41
-73 41 -86 0 -3 7 -12 15 -20 8 -9 15 -25 15 -36 0 -12 3 -18 7 -15 6 6 20
-13 40 -53 4 -8 12 -20 17 -26 6 -6 18 -21 26 -34 49 -71 165 -191 244 -250
26 -19 52 -39 59 -45 20 -16 48 -32 97 -57 25 -13 47 -26 50 -30 3 -3 18 -10
33 -13 15 -4 27 -11 27 -16 0 -5 10 -9 23 -9 13 0 27 -3 30 -6 11 -11 110 -43
134 -44 12 0 25 -4 28 -10 9 -14 7891 -14 7900 0 3 5 17 10 31 10 13 0 32 4
42 9 9 6 43 17 75 27 31 9 57 21 57 25 0 5 6 9 13 9 7 0 30 9 52 20 22 11 45
20 52 20 7 0 13 5 13 10 0 6 7 10 15 10 8 0 15 4 15 9 0 5 9 13 21 16 12 4 29
14 38 23 23 22 48 42 88 70 18 12 54 45 80 72 49 51 53 56 89 102 12 15 24 24
28 21 3 -3 6 0 6 9 0 8 9 26 20 39 30 37 34 42 54 82 11 20 23 37 27 37 4 0
10 13 14 30 4 16 11 30 16 30 5 0 9 8 9 18 0 10 7 27 15 38 8 10 15 27 15 37
0 9 4 17 9 17 6 0 13 20 17 45 3 25 10 45 14 45 4 0 11 26 15 58 4 31 12 60
19 64 8 5 13 164 18 570 9 623 15 821 27 814 4 -3 11 63 15 147 4 83 11 154
15 157 5 3 11 52 15 108 4 57 11 111 16 120 7 15 21 95 36 209 3 24 9 41 14
38 4 -2 11 27 14 65 4 39 11 70 15 70 5 0 11 23 14 52 4 28 11 56 17 62 5 5
10 23 10 39 0 15 4 26 9 23 5 -3 12 19 16 49 3 30 10 55 15 55 4 0 11 20 14
45 4 25 11 45 17 45 5 0 9 8 9 18 0 9 7 30 15 46 8 15 15 35 15 42 0 8 4 14 9
14 5 0 12 16 15 35 4 19 11 35 16 35 6 0 10 7 10 16 0 15 29 74 41 84 4 3 10
16 14 30 4 14 10 27 14 30 3 3 17 27 31 53 14 27 33 57 43 67 9 11 17 23 17
28 0 5 8 18 18 30 9 11 28 36 42 54 80 106 320 308 365 308 8 0 15 3 17 8 5
10 109 59 143 67 17 4 39 11 50 15 21 10 105 28 168 37 l37 5 0 338 0 338 -37
5 c-78 11 -158 30 -167 38 -6 5 -19 9 -29 9 -26 0 -159 58 -165 73 -2 4 -9 7
-17 7 -45 0 -285 202 -365 308 -14 18 -33 43 -42 54 -10 12 -18 25 -18 30 0 5
-8 17 -17 28 -10 10 -29 40 -43 67 -14 26 -28 50 -31 53 -4 3 -10 16 -14 30
-4 14 -10 27 -14 30 -12 10 -41 69 -41 84 0 9 -4 16 -10 16 -5 0 -12 16 -16
35 -3 19 -10 35 -15 35 -5 0 -9 9 -9 19 0 11 -4 22 -9 26 -5 3 -12 19 -16 36
-4 17 -13 42 -21 57 -8 15 -14 37 -14 50 0 12 -4 22 -9 22 -5 0 -13 25 -16 55
-4 30 -11 52 -16 49 -5 -3 -9 8 -9 23 0 16 -5 34 -10 39 -6 6 -13 34 -17 62
-3 29 -9 52 -14 52 -4 0 -11 31 -15 70 -3 38 -10 67 -14 65 -5 -3 -11 14 -14
38 -15 114 -29 194 -36 208 -5 9 -12 61 -16 115 -3 55 -10 104 -15 109 -4 6
-11 79 -15 162 -4 84 -11 150 -15 147 -12 -7 -18 191 -27 814 -5 406 -10 565
-18 570 -7 4 -15 33 -19 65 -4 31 -11 57 -15 57 -4 0 -11 20 -14 45 -4 25 -11
45 -17 45 -5 0 -9 8 -9 18 0 9 -7 26 -15 36 -8 11 -15 28 -15 38 0 10 -4 18
-9 18 -5 0 -12 14 -16 30 -4 17 -10 30 -14 30 -3 0 -15 17 -26 38 -21 39 -23
43 -55 81 -11 13 -20 31 -20 39 0 9 -3 12 -6 9 -4 -3 -16 6 -28 21 -36 46 -40
51 -87 100 -25 26 -72 67 -105 91 -32 25 -64 50 -69 57 -6 6 -20 14 -33 18
-12 4 -22 12 -22 17 0 5 -7 9 -15 9 -8 0 -15 5 -15 10 0 6 -6 10 -13 10 -7 0
-30 9 -52 20 -22 11 -45 20 -52 20 -7 0 -13 4 -13 8 0 5 -26 17 -57 27 -32 9
-66 21 -75 26 -10 5 -29 9 -42 9 -14 0 -28 5 -31 10 -4 7 -1332 10 -3950 10
-2618 0 -3946 -3 -3950 -10z m4550 -2368 c400 -65 691 -199 916 -422 139 -138
237 -294 298 -476 25 -74 28 -92 48 -229 20 -142 12 -372 -16 -455 -10 -29
-33 -110 -37 -125 -4 -23 -50 -123 -82 -180 -164 -292 -436 -504 -750 -584
-35 -9 -63 -21 -63 -26 0 -6 49 -20 110 -32 456 -91 811 -344 990 -708 44 -89
83 -196 95 -259 2 -11 10 -50 17 -86 24 -121 15 -456 -15 -595 -40 -185 -93
-311 -191 -460 -256 -386 -696 -619 -1300 -690 -109 -12 -325 -15 -1342 -15
l-1213 0 0 2678 c0 1473 3 2682 7 2686 4 4 545 5 1203 3 1158 -4 1199 -4 1325
-25z"/>
<path d="M5240 6240 l0 -791 608 4 c631 3 635 4 812 48 88 22 211 71 288 114
153 86 264 216 325 378 30 81 30 85 31 272 0 180 -1 194 -26 266 -62 177 -173
301 -348 389 -78 39 -102 48 -235 83 -77 20 -108 21 -767 24 l-688 4 0 -791z"/>
<path d="M5248 4794 c-5 -4 -8 -398 -8 -876 l0 -869 718 4 c795 4 801 4 1022
76 193 62 353 170 440 297 169 244 196 619 64 888 -104 213 -322 364 -619 431
-203 45 -233 47 -935 52 -371 3 -678 2 -682 -3z"/>
</g>
</svg>
