<?xml version="1.0" standalone="no"?>
<!DOCTYPE svg PUBLIC "-//W3C//DTD SVG 20010904//EN"
 "http://www.w3.org/TR/2001/REC-SVG-20010904/DTD/svg10.dtd">
<svg version="1.0" xmlns="http://www.w3.org/2000/svg"
 width="1008.000000pt" height="1008.000000pt" viewBox="0 0 1008.000000 1008.000000"
 preserveAspectRatio="xMidYMid meet">

<g transform="translate(0.000000,1008.000000) scale(0.100000,-0.100000)"
fill="#000000" stroke="none">
<path d="M4818 10060 c-43 -11 -101 -31 -130 -46 -29 -15 -388 -220 -798 -457
-410 -236 -1240 -716 -1845 -1065 -605 -349 -1123 -650 -1152 -669 -57 -37
-145 -128 -193 -197 -48 -71 -108 -197 -130 -277 -20 -73 -20 -90 -20 -2314 0
-2224 0 -2241 20 -2314 23 -80 81 -205 132 -279 17 -26 66 -81 108 -122 71
-71 110 -95 665 -415 824 -474 948 -545 2120 -1222 572 -330 1063 -612 1091
-626 92 -46 156 -57 349 -57 193 0 257 11 349 57 46 23 642 366 2481 1428 341
197 769 443 950 548 368 211 402 234 475 313 96 106 173 244 210 375 20 73 20
90 20 2314 0 2224 0 2241 -20 2314 -23 80 -81 205 -132 279 -17 26 -66 81
-108 122 -72 72 -111 96 -920 562 -465 267 -987 568 -1160 668 -173 100 -461
267 -640 370 -179 103 -500 288 -715 412 -468 271 -473 273 -577 298 -112 27
-320 27 -430 0z m512 -2065 c170 -18 367 -56 522 -101 371 -108 745 -302 1050
-546 249 -199 539 -530 681 -778 l26 -45 -307 -177 c-169 -98 -455 -263 -636
-368 -181 -104 -332 -187 -337 -184 -5 3 -9 12 -9 21 0 28 -112 174 -210 274
-303 308 -693 462 -1130 446 -233 -9 -407 -51 -605 -147 -421 -205 -712 -577
-818 -1048 -18 -83 -21 -128 -21 -307 0 -227 12 -310 69 -482 31 -92 105 -253
116 -253 4 0 22 -24 39 -52 155 -253 422 -481 700 -597 207 -86 383 -116 635
-108 217 7 373 43 566 130 224 101 471 310 613 519 54 80 61 86 80 76 12 -6
264 -151 561 -323 297 -172 577 -333 623 -360 l82 -47 -22 -36 c-167 -279
-427 -577 -674 -776 -809 -651 -1859 -844 -2829 -521 -447 149 -823 380 -1158
713 -189 187 -416 478 -481 617 -10 22 -36 74 -57 116 -179 353 -291 731 -328
1103 -14 138 -14 422 -1 557 69 694 372 1333 865 1824 489 488 1108 784 1795
860 158 17 438 18 600 0z m2360 -2630 l0 -165 165 0 165 0 0 -165 0 -165 -165
0 -165 0 0 -165 0 -165 -162 0 -163 0 3 165 3 165 -171 0 -170 0 0 165 0 165
170 0 171 0 -3 165 -3 165 163 0 162 0 0 -165z m1240 0 l0 -165 170 0 170 0 0
-165 0 -165 -170 0 -170 0 0 -165 0 -165 -160 0 -160 0 0 165 0 165 -165 0
-165 0 0 165 0 165 165 0 165 0 0 165 0 165 160 0 160 0 0 -165z"/>
</g>
</svg>
