<?xml version="1.0" standalone="no"?>
<!DOCTYPE svg PUBLIC "-//W3C//DTD SVG 20010904//EN"
 "http://www.w3.org/TR/2001/REC-SVG-20010904/DTD/svg10.dtd">
<svg version="1.0" xmlns="http://www.w3.org/2000/svg"
 width="1008.000000pt" height="1008.000000pt" viewBox="0 0 1008.000000 1008.000000"
 preserveAspectRatio="xMidYMid meet">

<g transform="translate(0.000000,1008.000000) scale(0.100000,-0.100000)"
fill="#000000" stroke="none">
<path d="M4860 10061 c-53 -17 -102 -43 -535 -286 -110 -62 -335 -188 -500
-280 -165 -92 -448 -251 -630 -353 -181 -101 -442 -248 -580 -325 -137 -77
-320 -179 -405 -227 -85 -48 -177 -100 -205 -115 -27 -15 -162 -90 -300 -167
-409 -230 -548 -308 -784 -439 -270 -149 -337 -206 -399 -335 l-37 -79 -3
-2390 c-2 -2656 -8 -2425 64 -2546 67 -112 129 -156 535 -383 206 -116 475
-267 599 -336 124 -70 248 -139 275 -154 28 -16 199 -112 380 -214 182 -101
458 -257 615 -345 157 -88 411 -231 565 -317 541 -304 1011 -568 1157 -650 82
-45 175 -91 209 -101 83 -26 235 -26 318 0 66 20 84 30 991 540 252 142 565
318 1195 671 385 216 828 465 985 553 157 88 413 232 570 320 157 88 321 180
365 205 142 82 243 197 279 321 14 49 16 282 16 2416 0 2338 0 2362 -20 2420
-51 149 -153 256 -345 361 -72 39 -242 134 -380 211 -249 139 -703 393 -865
483 -47 26 -200 112 -340 190 -140 78 -293 164 -340 190 -47 26 -240 134 -430
240 -190 106 -480 268 -645 360 -165 92 -394 220 -510 285 -362 203 -478 264
-532 280 -72 21 -260 19 -333 -4z m505 -1682 c1018 -94 1946 -664 2508 -1540
l56 -87 -726 -415 -727 -415 -59 85 c-242 346 -610 588 -1043 685 -87 19 -128
22 -334 22 -206 0 -247 -3 -334 -22 -371 -83 -676 -261 -929 -542 -185 -206
-323 -481 -389 -776 -19 -87 -22 -128 -22 -334 0 -262 10 -332 78 -535 196
-585 702 -1019 1312 -1125 159 -27 407 -28 566 0 453 77 858 340 1119 726 28
42 54 74 58 72 7 -3 841 -462 1256 -691 99 -54 184 -103 189 -107 21 -20 -209
-351 -382 -551 -484 -560 -1183 -956 -1920 -1089 -292 -53 -674 -67 -962 -35
-1143 125 -2133 817 -2649 1850 -229 459 -344 957 -344 1485 0 437 77 846 234
1240 484 1210 1626 2034 2924 2110 155 9 351 4 520 -11z"/>
</g>
</svg>
