<?xml version="1.0" standalone="no"?>
<!DOCTYPE svg PUBLIC "-//W3C//DTD SVG 20010904//EN"
 "http://www.w3.org/TR/2001/REC-SVG-20010904/DTD/svg10.dtd">
<svg version="1.0" xmlns="http://www.w3.org/2000/svg"
 width="1008.000000pt" height="1008.000000pt" viewBox="0 0 1008.000000 1008.000000"
 preserveAspectRatio="xMidYMid meet">

<g transform="translate(0.000000,1008.000000) scale(0.100000,-0.100000)"
fill="#000000" stroke="none">
<path d="M2042 10063 c-27 -5 -40 -29 -87 -163 -159 -458 -173 -937 -40 -1400
l35 -122 -22 -27 c-269 -327 -408 -571 -512 -900 -86 -271 -111 -459 -110
-816 1 -663 104 -1172 329 -1630 401 -814 1150 -1272 2365 -1443 l187 -27 -54
-60 c-66 -72 -162 -213 -209 -308 -50 -98 -100 -255 -121 -377 l-18 -105 -75
-37 c-478 -234 -1075 -152 -1475 204 -94 84 -176 178 -237 274 -168 261 -215
321 -330 421 -180 157 -426 276 -646 313 -167 28 -342 -31 -342 -114 0 -61 92
-156 269 -278 325 -225 539 -504 666 -868 215 -611 775 -970 1512 -970 187 0
404 23 609 65 l31 7 6 -579 c7 -621 8 -629 62 -739 30 -61 105 -148 146 -169
50 -27 312 -112 424 -138 288 -69 294 -69 855 -74 537 -5 639 0 855 38 157 28
287 62 465 122 147 49 158 54 208 104 67 67 119 173 131 268 5 39 10 466 10
950 1 484 4 907 7 940 7 71 -8 249 -31 361 -49 240 -174 492 -338 684 -31 35
-54 66 -52 68 2 2 66 12 143 22 1252 167 2002 620 2413 1455 163 333 266 731
310 1200 21 217 18 693 -4 835 -72 465 -246 860 -536 1218 l-92 113 26 82 c68
214 100 431 99 682 -1 274 -36 485 -124 739 -66 192 -60 186 -209 186 -367 0
-881 -202 -1469 -578 l-133 -84 -147 35 c-957 234 -1923 234 -2878 0 l-151
-37 -149 95 c-493 314 -910 495 -1274 554 -88 14 -245 18 -298 8z"/>
</g>
</svg>
