<?xml version="1.0" standalone="no"?>
<!DOCTYPE svg PUBLIC "-//W3C//DTD SVG 20010904//EN"
 "http://www.w3.org/TR/2001/REC-SVG-20010904/DTD/svg10.dtd">
<svg version="1.0" xmlns="http://www.w3.org/2000/svg"
 width="1008.000000pt" height="1008.000000pt" viewBox="0 0 1008.000000 1008.000000"
 preserveAspectRatio="xMidYMid meet">

<g transform="translate(0.000000,1008.000000) scale(0.100000,-0.100000)"
fill="#000000" stroke="none">
<path d="M2232 10063 c-18 -9 -41 -30 -50 -47 -16 -29 -17 -343 -17 -4976 0
-4760 1 -4946 18 -4978 34 -63 29 -62 639 -62 619 0 605 -1 640 70 17 33 18
108 18 1130 l0 1096 222 209 c122 116 259 245 304 288 l82 77 1097 -1395 c603
-768 1112 -1407 1131 -1421 70 -54 55 -53 812 -54 791 0 762 -2 782 68 8 30 7
49 -2 76 -8 20 -618 788 -1453 1827 -792 985 -1441 1794 -1443 1798 -1 4 617
608 1375 1341 758 733 1383 1345 1390 1359 8 19 9 40 1 74 -14 65 -50 94 -130
102 -35 3 -364 5 -733 3 l-670 -3 -56 -28 c-49 -23 -241 -214 -1380 -1365
l-1324 -1337 -5 3040 c-5 2924 -6 3042 -23 3069 -37 56 -37 56 -639 56 -490 0
-557 -2 -586 -17z"/>
</g>
</svg>
