<?xml version="1.0" standalone="no"?>
<!DOCTYPE svg PUBLIC "-//W3C//DTD SVG 20010904//EN"
 "http://www.w3.org/TR/2001/REC-SVG-20010904/DTD/svg10.dtd">
<svg version="1.0" xmlns="http://www.w3.org/2000/svg"
 width="1008.000000pt" height="1008.000000pt" viewBox="0 0 1008.000000 1008.000000"
 preserveAspectRatio="xMidYMid meet">

<g transform="translate(0.000000,1008.000000) scale(0.100000,-0.100000)"
fill="#000000" stroke="none">
<path d="M0 5040 l0 -5040 5040 0 5040 0 0 5040 0 5040 -5040 0 -5040 0 0
-5040z m9900 0 l0 -4860 -4860 0 -4860 0 0 4860 0 4860 4860 0 4860 0 0 -4860z"/>
<path d="M2993 7953 c-11 -10 -54 -55 -97 -100 l-76 -82 0 -2702 0 -2703 93
-93 93 -93 304 0 304 0 98 98 98 98 0 916 0 916 113 109 c302 293 607 583 614
583 5 0 417 -606 917 -1348 500 -741 916 -1353 924 -1359 24 -20 835 -19 854
1 7 7 47 79 88 159 72 140 74 147 60 172 -15 26 -668 973 -1635 2370 l-505
730 990 985 990 985 0 47 c0 33 -14 79 -51 165 -27 65 -57 128 -65 141 l-14
22 -418 0 -417 0 -1222 -1227 -1222 -1228 0 1128 -1 1128 -82 87 c-45 48 -88
93 -97 100 -11 9 -90 12 -317 12 -273 0 -304 -2 -321 -17z"/>
</g>
</svg>
