<?xml version="1.0" standalone="no"?>
<!DOCTYPE svg PUBLIC "-//W3C//DTD SVG 20010904//EN"
 "http://www.w3.org/TR/2001/REC-SVG-20010904/DTD/svg10.dtd">
<svg version="1.0" xmlns="http://www.w3.org/2000/svg"
 width="1008.000000pt" height="1008.000000pt" viewBox="0 0 1008.000000 1008.000000"
 preserveAspectRatio="xMidYMid meet">

<g transform="translate(0.000000,1008.000000) scale(0.100000,-0.100000)"
fill="#000000" stroke="none">
<path d="M903 9645 c-414 -75 -759 -389 -878 -800 -23 -82 -25 -101 -25 -310
0 -209 2 -228 25 -311 116 -403 448 -710 860 -795 116 -24 396 -34 525 -18
489 58 875 417 982 914 16 78 16 342 0 420 -100 465 -433 801 -887 896 -73 15
-131 19 -310 18 -134 -1 -248 -6 -292 -14z"/>
<path d="M7258 6660 c-552 -70 -1056 -339 -1400 -750 -44 -52 -111 -142 -149
-199 l-69 -104 -2 454 -3 454 -1082 3 -1081 2 4 -1397 c3 -769 1 -2236 -3
-3261 l-8 -1862 1088 0 1088 0 -1 1933 c-1 1681 1 1943 14 2016 68 374 257
655 566 841 324 195 763 221 1085 65 296 -143 483 -423 565 -845 45 -228 43
-172 47 -2142 l4 -1868 1080 0 1080 0 -4 2078 c-3 2260 0 2129 -58 2462 -210
1206 -928 1951 -2029 2105 -131 19 -624 29 -732 15z"/>
<path d="M100 3260 l0 -3260 1085 0 1085 0 -2 3258 -3 3257 -1082 3 -1083 2 0
-3260z"/>
</g>
</svg>
