<?xml version="1.0" standalone="no"?>
<!DOCTYPE svg PUBLIC "-//W3C//DTD SVG 20010904//EN"
 "http://www.w3.org/TR/2001/REC-SVG-20010904/DTD/svg10.dtd">
<svg version="1.0" xmlns="http://www.w3.org/2000/svg"
 width="1263.000000pt" height="842.000000pt" viewBox="0 0 1263.000000 842.000000"
 preserveAspectRatio="xMidYMid meet">

<g transform="translate(0.000000,842.000000) scale(0.100000,-0.100000)"
fill="#000000" stroke="none">
<path d="M119 8408 c-57 -15 -82 -48 -87 -116 -3 -47 0 -63 20 -92 31 -45 65
-56 228 -69 134 -11 271 -37 363 -67 l47 -16 -3 -2186 c-2 -1939 -4 -2193 -18
-2242 -19 -66 -52 -132 -91 -182 -64 -82 -221 -157 -363 -173 -133 -15 -186
-45 -205 -115 -11 -42 1 -103 25 -130 40 -44 50 -45 855 -45 745 0 766 1 805
20 52 26 67 56 62 128 -3 47 -9 62 -32 87 -32 34 -62 43 -184 60 -296 40 -467
178 -501 405 -7 48 -10 707 -8 2084 l3 2013 959 -2318 c528 -1276 971 -2337
984 -2359 48 -79 105 -125 155 -125 49 0 89 22 116 65 14 22 465 1095 1001
2383 536 1288 978 2342 983 2342 4 0 7 -794 7 -1764 l0 -1764 78 30 c42 17
102 37 132 46 30 9 58 21 63 27 7 9 2 -630 -5 -705 -2 -19 -7 -40 -11 -47 -4
-6 -4 -18 -1 -27 4 -9 1 -16 -6 -16 -7 0 -10 -7 -7 -15 4 -8 2 -17 -4 -21 -6
-3 -8 -12 -5 -20 3 -8 1 -14 -5 -14 -6 0 -8 -4 -4 -9 3 -5 1 -12 -5 -16 -6 -4
-8 -11 -5 -16 4 -5 1 -9 -5 -9 -6 0 -8 -4 -5 -10 3 -5 1 -10 -5 -10 -6 0 -8
-4 -5 -10 3 -6 1 -10 -5 -10 -6 0 -9 -4 -6 -9 3 -5 -1 -12 -10 -15 -9 -4 -14
-9 -11 -13 4 -3 -1 -12 -11 -20 -11 -9 -12 -12 -2 -8 8 4 2 -4 -15 -18 -23
-20 -27 -27 -15 -31 8 -3 237 -7 508 -8 l493 -3 -33 28 c-18 16 -26 26 -18 22
8 -4 5 2 -7 13 -12 11 -19 22 -16 26 3 3 -2 8 -11 12 -9 3 -13 10 -10 15 3 5
0 9 -6 9 -6 0 -8 5 -5 10 3 6 1 10 -5 10 -6 0 -8 5 -5 10 3 6 1 10 -5 10 -6 0
-8 5 -5 10 3 6 2 10 -2 10 -5 0 -10 10 -10 22 -1 13 -7 24 -12 26 -5 2 -8 9
-5 17 3 7 1 16 -5 19 -6 4 -8 13 -5 20 3 8 1 17 -5 20 -6 4 -8 13 -4 21 3 9 1
21 -4 28 -6 7 -11 183 -12 444 l-2 431 88 4 c48 2 111 1 140 0 l53 -4 0 -388
c0 -263 3 -391 11 -395 6 -4 7 -19 4 -35 -3 -15 -2 -31 4 -34 6 -4 8 -13 4
-21 -3 -8 0 -15 6 -15 6 0 8 -7 5 -15 -4 -8 -1 -15 5 -15 6 0 8 -6 5 -14 -3
-8 4 -24 15 -35 12 -12 18 -21 14 -21 -4 0 2 -7 13 -16 10 -8 12 -12 4 -8 -8
4 8 -14 35 -41 28 -27 51 -47 53 -45 2 3 8 -3 13 -13 6 -9 14 -15 20 -12 5 4
9 1 9 -5 0 -12 61 -41 72 -34 5 3 8 0 8 -6 0 -6 5 -8 10 -5 6 3 10 1 10 -5 0
-7 7 -10 15 -6 8 3 15 1 15 -5 0 -6 7 -9 15 -6 8 4 17 2 21 -4 3 -6 12 -8 20
-5 7 3 16 1 20 -5 3 -5 14 -7 24 -4 10 3 21 1 25 -5 4 -7 18 -9 30 -6 13 3 27
1 31 -5 4 -7 21 -9 45 -5 23 4 40 2 44 -5 4 -6 13 -8 21 -5 8 3 14 1 14 -4 0
-6 3 -9 8 -8 11 4 52 -35 46 -44 -3 -4 0 -8 6 -8 6 0 8 -4 5 -10 -3 -5 -3 -10
2 -10 4 0 8 -22 8 -50 0 -27 -4 -50 -9 -50 -5 0 -7 -2 -4 -6 9 -8 -46 -60 -59
-56 -7 2 -13 0 -13 -5 0 -6 -12 -11 -27 -13 -38 -3 -2359 -3 -2400 1 -18 1
-33 7 -33 12 0 5 -7 7 -15 3 -8 -3 -15 -1 -15 5 0 6 -4 8 -9 5 -11 -7 -43 28
-34 37 3 4 1 7 -6 7 -7 0 -10 4 -6 9 3 5 1 12 -5 16 -15 9 -12 53 6 80 9 14
14 25 11 25 -4 0 4 10 16 23 12 13 25 22 29 20 3 -2 12 3 20 10 7 8 19 12 26
9 7 -2 19 1 26 7 7 6 27 8 43 5 18 -4 33 -1 37 5 4 6 18 8 32 5 15 -4 24 -2
24 6 0 7 8 9 20 5 12 -4 20 -2 20 5 0 7 7 10 15 7 8 -4 17 -2 20 4 4 5 10 7
15 4 5 -3 11 -1 15 5 4 6 11 8 16 5 5 -4 9 -2 9 2 0 5 10 10 22 10 13 1 28 9
34 17 6 9 14 13 17 9 4 -3 7 -1 7 6 0 7 4 10 9 6 6 -3 15 4 21 15 6 11 15 18
19 16 4 -3 23 11 42 31 19 20 27 33 19 29 -8 -4 -6 0 5 9 11 9 19 21 17 26 -1
5 3 9 10 9 6 0 9 3 5 6 -3 4 1 13 9 21 8 8 12 19 9 24 -4 5 -1 9 5 9 6 0 9 4
5 9 -3 5 -1 12 4 16 6 3 8 12 4 20 -3 8 0 15 7 15 7 0 10 8 7 20 -3 11 -2 22
2 25 9 5 15 555 6 555 -14 0 -193 -117 -277 -182 -461 -356 -762 -874 -854
-1468 -25 -159 -25 -481 0 -640 108 -701 506 -1287 1110 -1635 236 -135 506
-230 772 -270 135 -20 543 -20 678 0 880 133 1610 794 1830 1657 38 149 64
314 68 433 l3 80 428 -3 c404 -2 427 -3 418 -20 -5 -10 -136 -237 -290 -506
-155 -268 -281 -492 -281 -497 0 -5 744 -9 1896 -9 l1896 0 -26 44 c-14 24
-435 756 -936 1627 l-910 1583 0 1093 0 1093 -2151 0 -2150 0 3 578 c3 572 3
578 26 640 30 83 58 127 121 185 82 76 215 127 374 143 112 11 157 54 157 151
0 66 -30 106 -94 122 -60 15 -1814 16 -1868 1 -23 -7 -47 -23 -61 -43 -13 -18
-365 -845 -781 -1839 -416 -993 -762 -1820 -769 -1836 -12 -29 -45 48 -766
1772 -415 990 -767 1828 -782 1861 -15 33 -38 67 -51 75 -20 13 -141 15 -918
17 -559 1 -909 -3 -931 -9z m1693 -325 c14 -32 359 -858 768 -1837 409 -978
758 -1801 774 -1829 21 -35 45 -58 75 -74 25 -13 46 -25 49 -27 4 -5 -335
-797 -347 -809 -4 -4 -416 975 -916 2175 -499 1201 -924 2214 -944 2251 -20
38 -60 100 -89 138 l-52 69 329 0 328 0 25 -57z m4482 -7 c-55 -80 -87 -150
-108 -243 -14 -65 -16 -231 -16 -1706 l0 -1634 -31 -7 c-17 -3 -44 -6 -60 -6
-83 0 -332 -58 -541 -127 -17 -5 -18 89 -18 1891 l0 1896 410 0 409 0 -45 -64z
m4466 -4786 l0 -1110 -665 0 c-503 0 -665 3 -665 12 0 12 52 93 101 158 15 19
35 51 46 70 10 19 31 54 46 77 15 24 27 45 27 47 0 3 14 25 30 49 17 25 30 47
30 50 0 4 14 26 30 50 17 25 30 47 30 50 0 4 14 26 30 50 17 25 30 47 30 50 0
4 14 26 30 50 17 25 30 48 30 51 0 3 16 29 36 57 20 29 48 75 63 103 14 28 47
83 72 121 24 39 51 84 59 100 8 17 30 52 48 79 19 27 46 72 61 100 14 28 47
83 72 121 24 39 51 84 59 100 8 17 30 52 48 79 19 27 46 72 61 100 14 28 47
83 72 121 25 39 65 111 89 160 24 50 53 106 65 125 12 19 29 47 39 63 9 15 19
27 21 27 3 0 5 -499 5 -1110z"/>
</g>
</svg>
