<?xml version="1.0" standalone="no"?>
<!DOCTYPE svg PUBLIC "-//W3C//DTD SVG 20010904//EN"
 "http://www.w3.org/TR/2001/REC-SVG-20010904/DTD/svg10.dtd">
<svg version="1.0" xmlns="http://www.w3.org/2000/svg"
 width="1008.000000pt" height="1008.000000pt" viewBox="0 0 1008.000000 1008.000000"
 preserveAspectRatio="xMidYMid meet">

<g transform="translate(0.000000,1008.000000) scale(0.100000,-0.100000)"
fill="#000000" stroke="none">
<path d="M4645 10033 c-27 -2 -123 -12 -211 -23 -986 -120 -1911 -530 -2661
-1178 -76 -66 -160 -143 -188 -171 -27 -28 -54 -51 -60 -51 -16 -1 -67 -49
-61 -58 3 -5 -18 -31 -45 -58 -80 -77 -267 -297 -371 -435 -566 -748 -904
-1617 -993 -2553 -17 -185 -20 -696 -5 -881 94 -1112 557 -2164 1313 -2979 56
-61 101 -114 99 -118 -3 -10 48 -57 61 -58 5 0 50 -39 100 -86 691 -653 1609
-1111 2550 -1274 339 -58 426 -65 862 -65 396 0 465 4 725 41 990 140 1945
598 2682 1285 58 54 110 99 115 99 14 1 66 51 59 57 -3 3 27 40 67 82 334 351
622 767 847 1223 260 525 410 1034 486 1643 22 173 31 776 15 969 -93 1122
-556 2176 -1314 2991 -56 60 -101 113 -99 117 3 10 -49 57 -63 58 -6 0 -33 23
-60 51 -79 81 -315 282 -448 381 -758 566 -1605 893 -2541 983 -146 14 -703
19 -861 8z m345 -583 l0 -500 -72 0 c-181 0 -617 -55 -759 -96 -14 -4 -30 48
-100 331 -55 220 -88 335 -96 335 -23 0 -1673 -830 -1673 -841 0 -9 187 -268
356 -494 l23 -31 -72 -55 c-40 -31 -121 -100 -181 -154 l-108 -98 -349 349
-349 349 43 43 c63 64 267 240 392 337 257 200 514 359 830 515 481 237 953
385 1471 459 167 24 418 46 572 49 l72 2 0 -500z m535 474 c896 -85 1792 -442
2510 -999 125 -97 329 -273 392 -337 l43 -43 -349 -349 -349 -349 -99 89
c-674 613 -1534 969 -2440 1011 l-143 6 0 500 0 500 138 -7 c75 -4 209 -14
297 -22z m-535 -1572 l0 -498 -152 -12 c-133 -10 -359 -42 -410 -58 -13 -4
-19 4 -27 33 -42 160 -231 926 -229 928 7 7 275 55 388 70 107 14 280 28 398
34 l32 1 0 -498z m450 472 c712 -74 1399 -355 1965 -807 72 -57 165 -137 208
-178 l78 -74 -349 -349 -350 -349 -85 76 c-83 74 -279 224 -304 234 -7 3 -13
10 -13 16 0 5 56 99 125 208 69 109 125 204 125 211 -1 15 -785 451 -801 446
-7 -2 -48 -116 -93 -253 -45 -138 -84 -255 -86 -261 -4 -8 -47 -1 -138 22
-152 39 -356 70 -519 80 l-113 7 0 498 0 499 103 -6 c56 -3 167 -12 247 -20z
m-3286 -1141 c-374 -414 -654 -886 -814 -1368 -18 -55 -37 -101 -41 -103 -5
-2 -9 -16 -9 -30 0 -15 -12 -65 -25 -112 -63 -214 -119 -567 -131 -832 l-7
-148 -500 0 -500 0 7 133 c15 300 46 549 103 821 179 862 599 1676 1200 2324
l96 104 350 -350 350 -350 -79 -89z m6582 582 c151 -175 261 -318 389 -510
483 -726 760 -1550 815 -2430 5 -88 10 -177 10 -197 l0 -38 -499 0 -498 0 -7
148 c-43 910 -394 1750 -1020 2445 l-79 89 349 349 349 349 43 -43 c24 -23 90
-96 148 -162z m-5452 -944 l39 -53 -34 -26 c-19 -15 -72 -60 -118 -101 l-83
-74 -350 349 -349 349 83 79 c46 43 123 111 172 150 l90 72 256 -345 c140
-190 273 -370 294 -400z m1706 -75 l0 -494 -67 -7 c-38 -3 -106 -12 -153 -19
-47 -8 -88 -11 -91 -7 -6 6 -239 932 -239 950 0 20 320 68 468 70 l82 1 0
-494z m362 479 c176 -20 468 -84 468 -102 0 -3 -68 -216 -151 -473 l-152 -467
-74 18 c-79 19 -175 34 -285 44 l-68 7 0 494 0 494 68 0 c37 0 124 -7 194 -15z
m-2409 -812 c-222 -246 -412 -560 -533 -883 -24 -63 -47 -119 -51 -124 -7 -8
-925 259 -942 274 -10 9 67 224 144 400 164 374 432 778 698 1053 l56 57 349
-349 349 -349 -70 -79z m5074 492 c363 -455 611 -974 738 -1545 40 -183 72
-402 80 -555 3 -60 8 -134 10 -162 l5 -53 -499 0 -499 0 -7 103 c-9 138 -32
312 -55 427 -97 470 -328 928 -647 1287 l-76 85 349 350 349 349 74 -78 c41
-43 121 -136 178 -208z m-1279 -265 c53 -43 114 -96 134 -117 l38 -38 -349
-349 -349 -349 -64 55 c-50 43 -113 93 -147 115 -2 1 115 191 260 422 l263
419 59 -40 c32 -22 102 -75 155 -118z m-3086 -315 c134 -181 262 -355 285
-386 l42 -56 -56 -48 -55 -48 -349 349 -348 348 22 25 c12 13 60 57 107 97 66
56 88 70 97 61 6 -7 121 -160 255 -342z m78 -686 c-115 -138 -217 -311 -285
-487 -16 -40 -33 -71 -39 -69 -6 2 -219 66 -474 142 l-463 138 6 26 c15 61
102 266 166 390 109 212 247 410 394 569 l59 63 349 -349 349 -349 -62 -74z
m3392 621 c356 -423 585 -1004 615 -1557 l6 -113 -499 2 -499 3 -7 99 c-24
333 -167 682 -388 945 l-62 74 348 348 348 349 29 -28 c16 -15 65 -70 109
-122z m-2132 -620 l0 -500 -23 0 c-21 0 -28 24 -143 485 -74 297 -117 485
-110 485 6 1 49 7 96 14 47 8 106 14 133 15 l47 1 0 -500z m273 485 c96 -14
204 -39 214 -48 2 -3 -57 -193 -132 -424 -75 -230 -143 -439 -151 -465 -16
-48 -16 -48 -60 -48 l-44 0 0 500 0 500 38 0 c20 0 81 -7 135 -15z m759 -323
c128 -103 158 -47 -240 -445 -228 -228 -351 -344 -359 -339 -9 6 66 133 250
425 144 229 265 417 269 417 4 0 40 -26 80 -58z m-1811 -232 c78 -107 187
-256 242 -330 l99 -135 -301 300 c-166 165 -301 302 -300 305 0 3 21 22 46 43
37 31 48 36 58 25 7 -7 77 -101 156 -208z m332 -677 c-16 -22 -37 -59 -47 -81
-11 -23 -23 -42 -28 -42 -13 0 -920 271 -934 279 -8 4 1 35 26 98 64 156 172
331 273 440 l41 44 349 -349 349 -349 -29 -40z m1822 542 c151 -225 246 -495
271 -767 l7 -78 -394 1 -394 1 130 19 c72 10 167 23 213 30 65 9 82 15 82 28
1 33 -95 404 -106 408 -5 2 -143 -53 -305 -122 -162 -68 -295 -121 -297 -116
-2 6 -17 29 -34 52 l-30 42 348 349 349 349 52 -57 c29 -31 77 -94 108 -139z
m-5075 -560 l0 -285 -30 0 -30 0 5 58 c2 31 7 100 10 152 5 96 36 360 42 360
2 0 3 -128 3 -285z m3700 133 c0 -36 -4 -35 -14 5 -4 16 -2 27 4 27 5 0 10
-14 10 -32z m144 23 c3 -4 -5 -39 -18 -77 l-25 -69 0 78 c-1 70 1 77 18 77 11
0 22 -4 25 -9z m-384 -277 c54 -55 86 -94 75 -92 -11 3 -70 20 -132 38 -92 27
-110 35 -105 49 13 30 56 101 62 101 3 0 48 -43 100 -96z m704 65 c10 -17 16
-32 14 -34 -1 -2 -46 -22 -98 -44 l-95 -42 75 76 c41 41 77 75 80 75 3 0 14
-14 24 -31z m-4320 -466 c13 -273 55 -555 117 -788 18 -66 34 -136 37 -155 2
-19 8 -37 11 -40 4 -3 27 -61 50 -129 162 -467 425 -913 766 -1300 l118 -133
-349 -349 -348 -349 -29 28 c-51 47 -247 273 -332 382 -616 789 -970 1724
-1035 2735 -5 88 -10 177 -10 197 l0 38 498 0 499 0 7 -137z m155 -150 c-1
-175 -5 -270 -9 -243 -11 64 -38 339 -43 443 l-5 87 29 0 29 0 -1 -287z m4237
245 c-4 -24 -21 -73 -38 -110 l-30 -67 -125 101 c-68 56 -126 105 -129 110 -3
4 70 8 162 8 l167 0 -7 -42z m1109 -35 c-16 -190 -78 -409 -161 -574 -67 -136
-151 -262 -169 -255 -8 3 -183 143 -390 312 l-374 307 24 42 c31 51 61 139 70
200 l7 45 500 0 500 0 -7 -77z m1102 -36 c-26 -491 -216 -1021 -509 -1418
l-63 -86 -365 299 c-201 164 -373 306 -382 316 -15 16 -13 23 44 107 153 230
259 532 274 785 3 47 7 91 10 98 3 9 111 12 500 12 l497 0 -6 -113z m1106 21
c-37 -790 -282 -1484 -747 -2120 -39 -54 -76 -96 -83 -93 -6 2 -181 142 -387
311 l-375 308 34 45 c288 380 481 856 539 1328 8 65 18 162 21 216 l7 97 498
0 497 0 -4 -92z m1107 54 c0 -88 -22 -370 -41 -522 -108 -872 -457 -1710
-1004 -2410 -85 -109 -281 -335 -332 -382 l-29 -28 -139 140 -140 140 154 154
c93 93 152 159 149 169 -1 8 -107 100 -234 204 l-230 188 44 55 c57 73 237
345 294 445 303 534 473 1125 504 1743 l7 142 498 0 499 0 0 -38z m-5018 -227
c-14 -82 -27 -152 -28 -154 -6 -7 -110 40 -139 64 l-30 24 109 110 c61 61 111
109 112 108 1 -1 -10 -69 -24 -152z m309 -132 c-25 -12 -51 -22 -57 -22 -5 -1
-18 49 -28 110 -10 61 -20 119 -23 128 -3 9 30 -31 74 -89 l81 -105 -47 -22z
m-1221 -3 c-228 -115 -420 -209 -427 -209 -15 -1 -69 137 -57 148 9 9 869 269
889 270 6 0 -177 -94 -405 -209z m760 -88 c36 -16 74 -33 86 -38 20 -9 19 -14
-52 -429 -40 -231 -78 -451 -85 -489 l-11 -68 -39 6 c-69 11 -222 66 -334 121
-124 61 -228 127 -329 210 l-68 57 352 353 353 353 31 -23 c18 -13 61 -37 96
-53z m-605 -253 l-300 -300 -42 47 c-23 26 -40 50 -37 53 10 11 669 499 674
500 3 1 -130 -134 -295 -300z m1475 -127 c160 -216 288 -397 285 -402 -8 -13
-154 -96 -235 -134 -131 -60 -340 -122 -340 -102 0 9 -158 935 -164 958 -3 12
11 22 58 38 33 12 65 26 71 31 5 5 15 8 22 7 7 -2 143 -180 303 -396z m-2197
291 l35 -88 -284 -143 c-156 -78 -284 -147 -284 -152 0 -22 285 -390 302 -390
10 0 121 76 247 170 l230 169 47 -55 48 -55 -350 -350 -349 -350 -63 68 c-153
164 -329 428 -436 655 -56 118 -132 315 -125 322 4 4 924 283 940 285 4 1 22
-38 42 -86z m-1064 -305 c33 -102 123 -305 189 -423 99 -180 202 -326 345
-492 l90 -105 -349 -350 -349 -349 -78 83 c-250 266 -494 633 -656 985 -62
136 -160 390 -164 425 -2 19 38 33 458 159 253 75 467 138 476 138 10 1 22
-22 38 -71z m1551 -374 c186 -159 481 -307 702 -353 55 -12 57 -14 52 -39 -3
-15 -40 -233 -83 -485 -43 -251 -81 -460 -84 -463 -9 -10 -186 33 -318 77
-364 120 -676 300 -967 557 l-74 65 349 349 c191 191 350 348 353 348 3 0 34
-25 70 -56z m2368 -501 l292 -397 -97 -63 c-189 -124 -404 -227 -632 -302
-132 -44 -309 -87 -318 -77 -3 3 -41 212 -84 463 -43 252 -80 470 -83 485 -5
25 -2 27 47 37 146 31 357 118 497 204 41 26 77 46 80 46 3 0 137 -178 298
-396z m-3120 -306 c391 -336 761 -519 1295 -641 20 -5 27 -12 27 -31 l0 -25
240 0 240 0 0 -495 0 -495 -95 0 c-279 0 -696 75 -1038 186 -515 168 -1048
484 -1415 838 l-52 51 347 347 c191 192 349 348 351 348 2 0 47 -37 100 -83z
m3796 -610 c141 -191 259 -354 262 -361 3 -8 -40 -42 -118 -93 -449 -291 -901
-472 -1420 -567 -170 -32 -398 -56 -523 -56 l-95 0 0 495 0 495 240 0 240 0 0
25 c0 19 7 26 28 31 399 91 704 217 988 407 l79 53 31 -41 c17 -22 146 -197
288 -388z m-4556 -191 c411 -365 868 -630 1372 -796 342 -114 686 -177 1058
-196 l132 -7 0 -500 0 -499 -127 7 c-602 31 -1103 137 -1623 342 -563 222
-1072 543 -1528 962 l-104 94 349 349 c191 191 349 348 351 348 2 0 56 -47
120 -104z m5082 -521 c102 -140 192 -254 200 -254 8 -1 119 104 247 231 l233
233 141 -140 140 -140 -83 -78 c-439 -413 -982 -757 -1548 -980 -521 -205
-1021 -311 -1622 -342 l-128 -7 0 499 0 500 133 7 c588 30 1112 171 1623 436
146 75 345 195 429 259 22 16 42 30 45 30 3 0 88 -114 190 -254z"/>
</g>
</svg>
