<?xml version="1.0" standalone="no"?>
<!DOCTYPE svg PUBLIC "-//W3C//DTD SVG 20010904//EN"
 "http://www.w3.org/TR/2001/REC-SVG-20010904/DTD/svg10.dtd">
<svg version="1.0" xmlns="http://www.w3.org/2000/svg"
 width="1263.000000pt" height="720.000000pt" viewBox="0 0 1263.000000 720.000000"
 preserveAspectRatio="xMidYMid meet">

<g transform="translate(0.000000,720.000000) scale(0.100000,-0.100000)"
fill="#000000" stroke="none">
<path d="M3295 7174 c-504 -51 -882 -154 -1290 -354 -783 -384 -1399 -1045
-1735 -1861 -127 -310 -213 -656 -251 -1019 -16 -148 -16 -531 0 -685 101
-982 570 -1851 1326 -2459 1152 -928 2758 -1040 4033 -282 236 141 446 303
656 506 586 569 948 1291 1061 2120 22 159 31 583 16 762 -135 1599 -1314
2915 -2881 3217 -218 42 -329 52 -615 56 -154 1 -298 1 -320 -1z"/>
<path d="M9050 6951 c-724 -154 -1329 -1139 -1519 -2471 -73 -507 -80 -1082
-21 -1602 155 -1354 743 -2404 1466 -2613 246 -71 476 -49 721 70 938 457
1506 2254 1282 4055 -170 1367 -793 2408 -1534 2561 -116 24 -280 24 -395 0z"/>
<path d="M11932 6603 c-206 -101 -398 -746 -492 -1653 -149 -1440 -35 -3223
256 -3995 70 -183 160 -322 235 -360 66 -35 149 -10 215 63 185 206 352 884
428 1737 140 1568 -14 3372 -341 4008 -94 182 -198 251 -301 200z"/>
</g>
</svg>
