<?xml version="1.0" standalone="no"?>
<!DOCTYPE svg PUBLIC "-//W3C//DTD SVG 20010904//EN"
 "http://www.w3.org/TR/2001/REC-SVG-20010904/DTD/svg10.dtd">
<svg version="1.0" xmlns="http://www.w3.org/2000/svg"
 width="1008.000000pt" height="1008.000000pt" viewBox="0 0 1008.000000 1008.000000"
 preserveAspectRatio="xMidYMid meet">

<g transform="translate(0.000000,1008.000000) scale(0.100000,-0.100000)"
fill="#000000" stroke="none">
<path d="M5010 10061 c-19 -9 -37 -19 -40 -22 -3 -3 -39 -21 -80 -40 -41 -18
-77 -36 -80 -40 -3 -3 -39 -21 -80 -40 -41 -18 -79 -37 -85 -42 -12 -9 -20
-13 -682 -346 -288 -145 -522 -266 -519 -268 2 -3 60 -33 128 -68 196 -99 233
-119 240 -130 5 -7 8 -7 8 0 0 7 3 7 8 0 4 -5 41 -26 82 -45 41 -19 77 -38 80
-41 3 -3 39 -21 80 -40 41 -18 77 -36 80 -40 3 -3 39 -21 80 -40 41 -18 80
-37 85 -41 18 -14 135 -74 452 -233 172 -86 314 -159 317 -163 6 -11 56 -7 64
4 4 5 32 21 62 37 30 15 93 48 140 73 47 26 119 64 160 86 41 22 111 59 155
83 44 24 112 60 150 80 39 20 104 56 146 78 42 23 107 58 145 77 38 19 72 38
75 43 3 4 37 23 75 42 38 19 107 56 154 81 47 26 119 63 160 84 42 20 81 44
88 53 11 13 -37 40 -370 207 -429 215 -488 245 -505 260 -7 6 -15 11 -18 11
-8 0 -160 72 -165 79 -3 3 -39 21 -80 39 -41 19 -77 37 -80 40 -3 4 -39 22
-80 40 -41 19 -77 37 -80 40 -3 4 -39 22 -80 40 -41 19 -77 37 -80 40 -3 3
-21 13 -40 22 -32 15 -38 15 -70 0z"/>
<path d="M2529 8811 c-74 -37 -486 -245 -917 -461 -472 -237 -780 -396 -774
-402 5 -5 155 -82 333 -172 840 -423 1297 -655 1335 -676 l40 -23 125 62 c200
102 244 125 251 136 5 7 8 7 8 0 0 -7 3 -7 8 0 7 10 36 27 192 107 139 73 257
134 415 218 77 40 181 95 230 120 50 26 140 73 200 105 61 32 160 84 222 115
99 51 143 79 143 93 0 2 -24 14 -52 28 -29 13 -55 26 -58 30 -3 3 -39 21 -80
40 -41 18 -77 36 -80 40 -3 3 -39 21 -80 40 -41 18 -79 37 -85 42 -12 9 -31
19 -468 240 -183 93 -429 218 -547 278 -118 60 -218 109 -221 109 -3 0 -66
-31 -140 -69z"/>
<path d="M7380 8839 c-30 -17 -109 -59 -175 -94 -114 -60 -194 -102 -385 -204
-199 -105 -269 -142 -330 -172 -36 -18 -67 -35 -70 -38 -5 -6 -22 -16 -185
-102 -55 -29 -136 -72 -180 -96 -44 -24 -104 -55 -132 -69 -29 -14 -53 -29
-53 -34 0 -4 141 -78 313 -165 171 -86 468 -237 659 -334 191 -97 442 -224
559 -283 116 -60 219 -108 228 -108 9 0 153 69 321 154 168 85 518 261 778
392 259 130 472 240 472 244 0 4 10 10 22 13 12 4 20 8 18 10 -11 10 -258 137
-735 377 -280 141 -635 321 -788 399 -154 77 -280 141 -280 141 -1 0 -27 -14
-57 -31z"/>
<path d="M5013 7598 c-139 -75 -316 -167 -383 -200 -36 -17 -68 -36 -72 -42
-4 -6 -8 -7 -8 -3 0 5 -12 -1 -28 -11 -27 -19 -142 -81 -342 -184 -52 -27
-131 -68 -175 -91 -233 -124 -503 -266 -615 -323 -36 -18 -65 -39 -65 -46 0
-7 214 -120 475 -252 261 -131 643 -324 849 -428 206 -103 382 -188 392 -188
10 0 107 46 216 102 109 55 398 202 643 326 875 442 944 477 947 488 2 6 -88
57 -199 114 -1217 617 -1540 780 -1548 780 -5 0 -44 -19 -87 -42z"/>
<path d="M367 7453 c-4 -3 -7 -1155 -7 -2560 0 -2423 1 -2554 18 -2560 9 -4
22 -11 27 -15 6 -5 37 -22 70 -39 33 -17 92 -48 130 -69 39 -21 104 -55 145
-77 41 -22 130 -70 198 -107 68 -37 153 -83 190 -103 37 -19 103 -55 147 -78
44 -24 100 -54 125 -67 25 -12 47 -26 50 -29 5 -6 78 -39 86 -39 2 0 5 593 6
1317 l3 1317 61 -119 c33 -66 99 -194 146 -285 47 -91 127 -246 178 -345 106
-208 133 -258 140 -265 3 -3 21 -39 40 -80 19 -41 37 -77 40 -80 3 -3 21 -39
40 -80 19 -41 38 -77 41 -80 4 -3 57 -104 119 -225 157 -306 269 -523 365
-710 118 -227 235 -455 368 -718 122 -238 163 -306 256 -421 74 -91 170 -186
188 -186 3 0 43 -25 88 -55 46 -30 87 -55 90 -55 3 0 53 -31 111 -70 57 -38
108 -70 112 -70 5 0 42 -22 83 -50 40 -27 78 -50 82 -50 4 0 59 -34 122 -75
62 -41 117 -75 122 -75 5 0 43 -22 84 -50 40 -27 80 -50 87 -50 6 0 12 -4 12
-10 0 -5 7 -10 15 -10 8 0 15 -4 15 -10 0 -5 4 -10 10 -10 5 0 39 -18 75 -40
36 -22 68 -40 70 -40 3 0 4 1169 3 2598 l-3 2597 -190 96 c-104 53 -396 200
-649 327 -252 128 -465 237 -472 243 -12 10 -14 -212 -14 -1420 0 -797 -4
-1431 -9 -1431 -4 0 -16 21 -26 48 -10 26 -30 72 -46 102 -26 51 -47 96 -150
320 -22 47 -57 121 -79 166 -22 44 -40 83 -40 86 0 4 -23 55 -51 115 -59 124
-104 220 -155 331 -20 42 -54 114 -75 160 -22 45 -57 121 -80 170 -22 48 -58
123 -78 167 -21 44 -55 118 -76 165 -22 47 -64 139 -96 205 -31 66 -73 155
-93 198 -45 97 -97 208 -147 315 -50 106 -111 235 -160 342 -22 47 -59 126
-83 175 -23 50 -58 124 -76 165 -18 41 -37 77 -42 78 -4 2 -8 10 -8 18 0 8
-23 63 -51 122 -28 59 -71 148 -95 199 -53 111 -98 153 -233 221 -53 27 -199
102 -326 167 -126 65 -315 162 -420 216 -246 125 -276 141 -293 157 -15 13
-25 15 -35 5z"/>
<path d="M8868 6966 l-838 -419 0 -1108 c0 -610 3 -1109 8 -1109 4 0 86 40
182 89 96 50 254 130 350 179 495 251 616 313 626 320 5 4 41 23 80 42 38 19
71 38 74 41 3 3 39 21 80 40 41 18 77 36 80 40 3 3 39 21 80 40 41 18 81 39
87 45 7 7 17 14 23 16 7 2 9 360 8 1103 l-3 1100 -837 -419z"/>
<path d="M6770 5916 c-311 -156 -747 -376 -970 -488 l-405 -204 -3 -1107 c-1
-609 1 -1107 5 -1107 11 0 1942 967 1959 981 12 10 14 177 14 1110 0 1040 -1
1099 -17 1099 -10 0 -272 -128 -583 -284z"/>
<path d="M9380 4251 c-302 -152 -905 -458 -1020 -517 -30 -16 -57 -32 -60 -35
-3 -3 -39 -21 -80 -40 -41 -18 -77 -36 -80 -40 -3 -4 -29 -17 -57 -29 l-53
-22 0 -1119 c0 -616 3 -1119 6 -1119 13 0 805 399 829 417 6 5 44 24 85 42 41
19 77 37 80 40 3 3 39 22 80 41 41 19 77 37 80 40 3 3 39 21 80 40 41 19 77
38 80 41 3 3 39 21 80 40 41 18 78 38 82 44 5 6 8 6 8 0 0 -7 3 -7 8 0 4 6 36
24 72 40 36 17 68 35 72 40 4 6 8 6 8 2 0 -5 7 -2 15 7 13 13 15 152 15 1130
0 614 -3 1116 -7 1116 -5 0 -150 -72 -323 -159z"/>
<path d="M7340 3222 c-8 -3 -17 -8 -20 -12 -3 -4 -39 -22 -80 -41 -41 -18 -77
-36 -80 -40 -3 -3 -39 -21 -80 -40 -41 -18 -77 -36 -80 -40 -3 -3 -39 -21 -80
-40 -41 -18 -78 -38 -82 -44 -5 -6 -8 -6 -8 0 0 7 -3 7 -8 0 -4 -5 -36 -23
-72 -40 -36 -16 -68 -34 -72 -40 -5 -7 -8 -7 -8 0 0 7 -3 7 -8 0 -4 -5 -36
-23 -72 -40 -36 -16 -68 -34 -72 -40 -5 -7 -8 -7 -8 0 0 7 -3 7 -8 0 -4 -5
-36 -23 -72 -40 -36 -16 -67 -33 -70 -37 -3 -4 -223 -116 -488 -249 l-482
-240 0 -1120 c0 -615 1 -1119 3 -1119 11 0 1947 977 1964 992 10 8 13 238 13
1119 0 609 -3 1110 -7 1112 -5 2 -15 2 -23 -1z"/>
</g>
</svg>
