<?xml version="1.0" standalone="no"?>
<!DOCTYPE svg PUBLIC "-//W3C//DTD SVG 20010904//EN"
 "http://www.w3.org/TR/2001/REC-SVG-20010904/DTD/svg10.dtd">
<svg version="1.0" xmlns="http://www.w3.org/2000/svg"
 width="1008.000000pt" height="1008.000000pt" viewBox="0 0 1008.000000 1008.000000"
 preserveAspectRatio="xMidYMid meet">

<g transform="translate(0.000000,1008.000000) scale(0.100000,-0.100000)"
fill="#000000" stroke="none">
<path d="M7100 6275 l0 -3805 550 0 550 0 0 3805 0 3805 -550 0 -550 0 0
-3805z"/>
<path d="M3630 8330 l0 -1150 558 2 557 3 3 1148 2 1147 -560 0 -560 0 0
-1150z"/>
<path d="M1870 3800 l0 -3800 555 0 555 0 0 3800 0 3800 -555 0 -555 0 0
-3800z"/>
<path d="M5370 6450 l0 -1150 553 2 552 3 3 1148 2 1147 -555 0 -555 0 0
-1150z"/>
<path d="M3630 5985 l0 -545 560 0 560 0 0 545 0 545 -560 0 -560 0 0 -545z"/>
<path d="M3630 3640 l0 -1150 560 0 560 0 0 1150 0 1150 -560 0 -560 0 0
-1150z"/>
<path d="M5370 4105 l0 -545 553 2 552 3 3 543 2 542 -555 0 -555 0 0 -545z"/>
<path d="M5370 1750 l0 -1150 555 0 555 0 -2 1148 -3 1147 -552 3 -553 2 0
-1150z"/>
</g>
</svg>
