<?xml version="1.0" standalone="no"?>
<!DOCTYPE svg PUBLIC "-//W3C//DTD SVG 20010904//EN"
 "http://www.w3.org/TR/2001/REC-SVG-20010904/DTD/svg10.dtd">
<svg version="1.0" xmlns="http://www.w3.org/2000/svg"
 width="1008.000000pt" height="1008.000000pt" viewBox="0 0 1008.000000 1008.000000"
 preserveAspectRatio="xMidYMid meet">

<g transform="translate(0.000000,1008.000000) scale(0.100000,-0.100000)"
fill="#000000" stroke="none">
<path d="M0 5040 l0 -4910 5040 0 5040 0 0 4910 0 4910 -5040 0 -5040 0 0
-4910z m9645 0 l0 -4470 -4600 0 -4600 0 -3 4462 c-1 2455 0 4468 2 4473 2 7
1543 9 4602 8 l4599 -3 0 -4470z"/>
<path d="M2722 7710 c-202 -6 -225 -9 -250 -27 l-27 -20 -3 -2274 c-1 -1578 1
-2276 8 -2283 15 -15 682 -21 710 -6 20 11 20 19 22 831 l3 821 85 0 c47 0 93
-4 104 -8 24 -9 419 4 426 15 3 4 36 11 74 15 93 9 278 45 292 57 6 5 14 6 18
2 4 -4 10 -3 14 3 4 5 36 18 72 29 76 22 280 116 325 151 18 13 36 24 41 24
13 0 126 90 187 149 105 100 216 257 267 376 12 27 28 63 35 80 22 45 52 152
65 225 6 36 15 72 20 81 21 39 33 306 21 471 -7 89 -16 167 -20 172 -5 6 -12
31 -16 56 -6 38 -19 91 -53 215 -3 11 -8 22 -11 25 -4 3 -20 37 -35 75 -33 81
-106 192 -185 284 -65 75 -235 219 -268 227 -13 4 -23 10 -23 15 0 10 -146 79
-166 79 -8 0 -14 4 -14 9 0 9 -94 42 -180 62 -30 7 -57 16 -60 20 -7 9 -172
36 -299 49 -111 11 -813 11 -1179 0z m1075 -670 c43 -6 85 -14 93 -17 8 -4 20
-8 25 -8 6 -1 17 -4 25 -8 8 -3 50 -17 92 -31 42 -14 104 -44 138 -67 73 -51
177 -159 205 -214 11 -22 23 -42 27 -45 17 -13 60 -193 65 -273 3 -48 10 -90
15 -93 11 -7 10 -51 -2 -59 -5 -3 -10 -32 -10 -63 0 -72 -16 -170 -40 -247
-50 -167 -200 -329 -364 -398 -39 -16 -76 -33 -81 -38 -6 -4 -55 -17 -110 -29
-83 -18 -145 -23 -362 -27 -144 -3 -273 -3 -287 1 l-26 6 0 805 0 804 43 4
c96 8 481 6 554 -3z"/>
<path d="M6670 6549 c-81 -4 -136 -12 -138 -18 -2 -6 -16 -11 -31 -11 -90 0
-356 -103 -442 -171 -20 -16 -42 -29 -48 -29 -6 0 -11 -5 -11 -10 0 -6 -20
-25 -45 -42 -68 -48 -212 -241 -236 -317 -6 -20 -20 -55 -30 -78 -35 -78 -52
-215 -46 -368 6 -131 26 -255 46 -279 5 -6 14 -29 20 -52 6 -22 29 -69 51
-103 22 -34 40 -65 40 -70 0 -24 268 -281 294 -281 3 0 32 -17 64 -39 31 -21
73 -47 92 -57 19 -10 38 -23 42 -29 5 -7 8 -7 8 0 0 7 3 7 8 0 8 -12 37 -27
182 -102 149 -76 204 -107 263 -150 84 -61 162 -125 166 -137 2 -6 9 -18 16
-26 44 -52 65 -110 65 -180 0 -78 -20 -134 -67 -191 -32 -38 -109 -89 -135
-89 -10 0 -18 -4 -18 -9 0 -43 -493 -44 -585 -1 -11 5 -63 20 -117 35 -53 14
-123 39 -157 55 -33 17 -64 30 -69 30 -5 0 -46 23 -92 50 -45 28 -90 50 -99
48 -14 -3 -16 -40 -16 -358 l0 -354 25 -13 c95 -48 158 -73 245 -98 55 -15
105 -30 110 -34 6 -3 18 -4 28 -3 10 2 24 -1 30 -6 60 -50 764 -50 824 0 7 6
19 8 27 5 8 -3 16 -3 18 1 2 4 35 15 73 25 118 31 335 148 382 207 7 8 13 12
13 9 0 -12 90 75 90 87 0 6 7 18 16 25 53 44 150 233 169 329 4 19 11 40 15
45 14 17 30 160 30 259 0 98 -17 254 -30 271 -4 6 -17 42 -29 82 -12 40 -40
99 -62 133 -21 33 -39 65 -39 71 0 6 -51 61 -112 123 -84 84 -146 134 -243
198 -71 47 -143 92 -160 100 -16 9 -84 44 -150 78 -66 35 -140 73 -165 86 -41
21 -131 78 -253 163 -91 63 -135 144 -136 247 -2 123 51 201 176 260 83 40
153 54 276 54 106 0 277 -19 294 -32 7 -5 17 -7 22 -4 5 4 12 2 15 -3 3 -5 23
-12 43 -15 53 -10 129 -34 188 -61 28 -13 66 -30 85 -39 19 -8 47 -23 62 -32
26 -17 28 -17 47 1 20 18 21 28 21 337 l0 319 -25 24 c-13 14 -31 25 -39 25
-8 0 -16 4 -18 9 -3 9 -187 56 -263 67 -27 4 -52 10 -55 14 -6 9 -273 31 -342
28 -24 0 -104 -4 -178 -9z"/>
</g>
</svg>
