<?xml version="1.0" standalone="no"?>
<!DOCTYPE svg PUBLIC "-//W3C//DTD SVG 20010904//EN"
 "http://www.w3.org/TR/2001/REC-SVG-20010904/DTD/svg10.dtd">
<svg version="1.0" xmlns="http://www.w3.org/2000/svg"
 width="1008.000000pt" height="1008.000000pt" viewBox="0 0 1008.000000 1008.000000"
 preserveAspectRatio="xMidYMid meet">

<g transform="translate(0.000000,1008.000000) scale(0.100000,-0.100000)"
fill="#000000" stroke="none">
<path d="M3513 8572 c-1474 -1474 -1570 -1573 -1688 -1717 -32 -38 -61 -72
-65 -75 -4 -3 -13 -16 -20 -30 -7 -14 -19 -32 -27 -40 -32 -35 -67 -85 -148
-210 -30 -47 -59 -90 -64 -96 -5 -6 -17 -26 -26 -45 -10 -19 -21 -36 -24 -39
-4 -3 -13 -20 -20 -37 -8 -18 -17 -33 -21 -33 -4 0 -11 -11 -14 -24 -3 -14
-12 -31 -19 -38 -7 -7 -22 -34 -32 -61 -10 -26 -21 -47 -25 -47 -4 0 -12 -18
-19 -40 -6 -22 -16 -40 -20 -40 -5 0 -14 -20 -21 -45 -7 -25 -16 -45 -20 -45
-4 0 -12 -19 -19 -42 -7 -23 -21 -58 -32 -77 -10 -20 -19 -43 -19 -51 0 -9 -7
-25 -14 -36 -8 -12 -20 -42 -27 -67 -6 -26 -15 -47 -20 -47 -5 0 -9 -8 -9 -18
0 -10 -13 -59 -29 -108 -15 -49 -32 -105 -36 -124 -4 -19 -11 -39 -15 -45 -4
-5 -14 -44 -21 -85 -7 -41 -16 -77 -19 -80 -15 -11 -79 -440 -80 -537 0 -28
-5 -55 -10 -58 -13 -8 -14 -638 -1 -663 5 -9 15 -84 21 -167 7 -82 16 -157 20
-165 4 -8 16 -70 26 -138 9 -67 21 -122 25 -122 3 0 12 -36 19 -80 7 -44 16
-80 20 -80 4 0 13 -29 20 -65 7 -36 16 -67 20 -70 4 -2 16 -41 26 -85 10 -44
22 -80 26 -80 3 0 12 -22 19 -50 7 -27 16 -50 20 -50 3 0 12 -21 19 -47 8 -27
19 -57 26 -68 7 -11 18 -39 25 -63 7 -23 16 -42 21 -42 4 0 8 -6 8 -13 0 -7
25 -61 55 -122 30 -60 55 -115 55 -122 0 -7 4 -13 9 -13 5 0 14 -15 22 -32 7
-18 16 -35 19 -38 4 -3 24 -36 45 -75 21 -38 42 -72 45 -75 4 -3 13 -16 20
-29 7 -14 17 -30 22 -35 5 -6 24 -36 43 -66 38 -61 60 -91 87 -122 10 -12 18
-24 18 -28 0 -4 10 -19 23 -33 12 -14 32 -39 44 -54 12 -15 34 -44 50 -63 15
-19 35 -43 43 -54 82 -103 302 -332 406 -422 31 -27 66 -58 78 -70 42 -41 359
-284 371 -284 2 0 42 -26 87 -58 46 -32 90 -61 98 -65 8 -4 38 -21 65 -37 28
-17 66 -37 85 -46 19 -9 37 -19 40 -23 7 -8 210 -108 238 -116 12 -3 22 -10
22 -15 0 -4 12 -11 28 -15 15 -3 41 -13 57 -20 93 -41 237 -97 300 -115 22 -6
54 -18 70 -25 17 -7 48 -17 70 -20 22 -4 48 -12 57 -16 10 -5 52 -16 95 -25
43 -8 87 -19 98 -24 37 -17 314 -64 535 -90 101 -12 715 -12 815 -1 202 24
332 43 350 50 11 5 56 16 100 24 124 24 269 58 280 67 6 4 38 13 73 20 34 7
62 16 62 20 0 4 17 11 38 15 20 4 51 13 67 20 17 8 50 20 75 29 52 17 78 28
254 104 36 16 179 87 286 143 25 13 47 27 48 32 2 4 8 7 13 7 11 0 169 97 259
159 91 62 312 230 330 250 8 9 37 34 64 56 116 93 420 410 521 541 11 15 27
34 35 43 8 9 24 30 34 46 23 35 28 41 61 79 14 16 25 32 25 37 0 4 6 14 14 21
7 8 21 28 30 46 9 18 21 32 26 32 6 0 10 6 10 13 0 7 9 23 20 35 11 12 20 26
20 32 0 5 8 18 18 28 9 9 26 36 36 60 10 23 22 42 26 42 3 0 12 16 19 35 7 19
16 35 20 35 4 0 13 16 20 35 7 19 16 35 20 35 4 0 13 17 20 38 8 20 19 44 26
52 7 8 18 32 25 53 6 20 15 37 19 37 5 0 14 20 21 45 7 25 16 45 20 45 4 0 12
19 19 42 7 23 21 58 32 77 10 20 19 43 19 51 0 9 6 24 13 35 8 11 20 41 27 67
7 27 17 48 21 48 5 0 9 8 9 18 0 10 13 59 29 108 16 49 32 109 36 132 4 23 10
42 14 42 4 0 13 36 20 80 8 44 17 80 21 80 4 0 13 44 20 98 7 53 16 102 21
107 4 6 16 84 26 175 26 234 26 835 0 1064 -10 87 -22 166 -26 175 -5 9 -14
60 -21 114 -8 53 -17 97 -21 97 -3 0 -12 36 -20 80 -7 44 -16 80 -20 80 -3 0
-12 28 -19 63 -6 34 -15 67 -20 72 -4 6 -15 42 -25 80 -11 39 -22 72 -25 75
-4 3 -13 29 -20 58 -8 28 -17 52 -21 52 -4 0 -12 21 -18 46 -7 25 -18 56 -26
67 -7 12 -19 41 -26 65 -7 23 -15 42 -19 42 -4 0 -13 20 -20 45 -7 25 -16 45
-21 45 -4 0 -13 17 -19 38 -7 20 -18 44 -25 52 -7 8 -18 32 -26 53 -7 20 -16
37 -20 37 -4 0 -13 16 -20 35 -7 19 -16 35 -20 35 -4 0 -13 16 -20 35 -7 19
-16 35 -19 35 -4 0 -16 19 -26 42 -10 24 -27 51 -36 60 -10 10 -18 25 -18 33
0 8 -4 15 -9 15 -5 0 -14 14 -21 30 -7 17 -16 30 -20 30 -4 0 -15 16 -26 35
-10 19 -22 35 -26 35 -3 0 -10 9 -13 20 -3 11 -12 26 -18 32 -11 12 -58 73
-101 132 -11 15 -29 37 -40 50 -12 13 -32 38 -46 55 -14 18 -38 47 -53 64 -16
18 -45 51 -65 75 -38 44 -142 152 -147 152 -6 0 -755 -753 -755 -759 0 -4 23
-31 50 -61 121 -131 154 -169 200 -230 14 -18 30 -38 36 -44 6 -6 27 -36 47
-66 20 -30 41 -60 47 -67 6 -7 15 -24 22 -38 6 -14 14 -25 18 -25 4 0 13 -13
20 -30 7 -16 16 -30 20 -30 5 0 16 -20 27 -45 10 -25 21 -45 24 -45 4 0 12
-15 20 -32 7 -18 16 -35 19 -38 12 -9 80 -158 80 -174 0 -9 4 -16 9 -16 5 0
15 -17 22 -37 6 -21 18 -47 25 -58 8 -11 14 -25 14 -33 0 -7 9 -33 20 -57 11
-24 26 -68 32 -97 7 -29 16 -56 20 -59 5 -3 14 -33 20 -67 6 -34 15 -62 18
-62 4 0 13 -35 20 -78 7 -42 16 -81 21 -87 8 -12 39 -240 39 -295 0 -21 5 -40
12 -42 8 -3 11 -85 11 -298 0 -213 -3 -295 -11 -298 -7 -2 -12 -21 -12 -42 0
-55 -31 -283 -39 -295 -5 -5 -14 -45 -21 -88 -7 -42 -16 -77 -20 -77 -3 0 -12
-28 -18 -62 -6 -34 -15 -64 -20 -67 -5 -3 -16 -37 -25 -75 -10 -39 -21 -72
-25 -75 -5 -4 -14 -27 -22 -53 -7 -27 -16 -48 -20 -48 -4 0 -13 -20 -20 -45
-7 -25 -17 -45 -21 -45 -5 0 -9 -6 -9 -14 0 -16 -106 -227 -118 -236 -4 -3
-16 -24 -26 -47 -11 -24 -23 -43 -28 -43 -4 0 -8 -6 -8 -12 0 -12 -40 -76 -68
-108 -6 -8 -29 -40 -49 -70 -20 -30 -41 -60 -47 -66 -6 -6 -22 -26 -36 -44
-147 -196 -457 -487 -670 -630 -12 -8 -40 -27 -61 -42 -21 -16 -41 -28 -43
-28 -3 0 -24 -13 -48 -29 -90 -60 -363 -201 -390 -201 -10 0 -18 -4 -18 -9 0
-9 -27 -20 -225 -86 -60 -21 -119 -41 -130 -46 -27 -12 -181 -46 -290 -65 -49
-8 -106 -19 -125 -24 -136 -37 -765 -37 -900 0 -19 5 -73 16 -120 24 -115 19
-270 54 -295 66 -11 5 -40 14 -65 21 -25 6 -49 14 -55 19 -5 4 -26 11 -45 15
-19 4 -53 16 -75 25 -22 10 -57 23 -77 30 -21 6 -38 15 -38 20 0 4 -12 11 -27
15 -46 11 -329 157 -355 183 -6 6 -16 12 -21 12 -13 0 -121 75 -257 179 -114
87 -248 207 -339 305 -20 21 -54 57 -76 80 -22 23 -58 63 -80 90 -22 27 -47
56 -55 65 -8 9 -33 41 -55 71 -22 30 -45 61 -52 68 -6 6 -15 21 -18 32 -3 11
-10 20 -14 20 -5 0 -14 14 -21 30 -7 17 -16 30 -20 30 -4 0 -15 18 -25 40 -10
22 -22 40 -26 40 -4 0 -13 16 -20 35 -7 19 -16 35 -20 35 -4 0 -13 16 -20 35
-7 19 -16 35 -20 35 -4 0 -15 23 -25 50 -10 27 -22 50 -26 50 -4 0 -8 4 -8 10
0 10 -48 120 -74 170 -8 14 -19 49 -27 78 -7 28 -16 52 -20 52 -4 0 -12 21
-18 47 -7 27 -18 62 -25 78 -8 17 -17 50 -21 75 -4 25 -11 47 -16 50 -4 3 -16
53 -25 110 -10 58 -21 107 -24 110 -8 6 -30 170 -30 227 0 24 -5 43 -12 45
-10 4 -13 75 -13 313 0 238 3 309 13 313 6 2 12 19 12 38 0 52 22 228 30 234
3 3 14 50 23 104 10 55 21 105 26 110 4 6 14 39 21 74 7 34 16 62 20 62 4 0
13 27 20 60 7 33 16 60 20 60 4 0 13 21 19 48 7 26 18 56 26 68 7 11 19 39 26
62 7 23 15 42 19 42 4 0 12 18 19 40 6 22 15 40 19 40 5 0 16 23 26 50 10 28
21 50 25 50 4 0 13 16 20 35 7 19 16 35 20 35 4 0 13 16 20 35 7 19 16 35 20
35 4 0 16 18 26 40 10 22 21 40 25 40 4 0 12 11 18 25 12 26 22 40 54 75 9 10
24 32 32 47 8 15 30 45 48 66 18 21 42 49 53 63 55 71 194 213 1278 1298
l1167 1169 0 728 c0 714 0 729 -19 729 -13 0 -565 -545 -1528 -1508z"/>
<path d="M6397 8410 c-27 -5 -68 -18 -93 -29 -24 -12 -46 -21 -48 -21 -28 0
-190 -145 -201 -180 -3 -11 -10 -20 -15 -20 -5 0 -14 -16 -20 -35 -6 -19 -15
-35 -19 -35 -14 0 -41 -149 -41 -225 0 -76 27 -225 41 -225 4 0 13 -16 19 -35
6 -19 15 -35 20 -35 5 0 11 -8 15 -19 6 -20 108 -131 121 -131 4 0 15 -6 23
-14 58 -51 203 -96 310 -96 112 0 235 40 325 104 50 36 132 127 141 157 4 11
10 19 15 19 5 0 16 24 26 53 9 28 22 58 28 66 7 9 11 66 11 156 0 90 -4 147
-11 156 -6 8 -19 38 -28 67 -10 28 -21 52 -26 52 -5 0 -11 8 -15 19 -3 10 -15
29 -26 42 -48 57 -90 99 -99 99 -6 0 -10 4 -10 10 0 16 -161 87 -225 99 -66
12 -147 13 -218 1z"/>
</g>
</svg>
