<?xml version="1.0" encoding="UTF-8"?>
<!DOCTYPE svg PUBLIC "-//W3C//DTD SVG 1.1//EN" "http://www.w3.org/Graphics/SVG/1.1/DTD/svg11.dtd">
<svg xmlns="http://www.w3.org/2000/svg" version="1.1" width="2048px" height="1104px" style="shape-rendering:geometricPrecision; text-rendering:geometricPrecision; image-rendering:optimizeQuality; fill-rule:evenodd; clip-rule:evenodd" xmlns:xlink="http://www.w3.org/1999/xlink">
<g><path style="opacity:0.987" fill="#000000" d="M 1298.5,-0.5 C 1326.5,-0.5 1354.5,-0.5 1382.5,-0.5C 1460.15,5.55027 1531.81,29.0503 1597.5,70C 1691.13,133.377 1750.96,220.21 1777,330.5C 1793.58,410.134 1793.58,489.801 1777,569.5C 1767.15,613.728 1753.31,656.561 1735.5,698C 1737.58,698.192 1739.58,698.692 1741.5,699.5C 1725.03,744.65 1708.86,789.983 1693,835.5C 1690.7,844.367 1689.2,853.367 1688.5,862.5C 1691.07,887.118 1703.41,893.951 1725.5,883C 1740.79,870.285 1755.29,856.785 1769,842.5C 1776.1,796.07 1790.26,752.07 1811.5,710.5C 1833.91,705.768 1856.41,701.435 1879,697.5C 1879.83,697.833 1880.67,698.167 1881.5,698.5C 1875.27,715.809 1869.1,733.143 1863,750.5C 1859.35,762.414 1856.35,774.414 1854,786.5C 1876.62,759.755 1901.79,735.589 1929.5,714C 1939.36,707.404 1950.03,702.404 1961.5,699C 1990.67,694.165 2006.33,706.499 2008.5,736C 2007.78,741.809 2007.28,747.643 2007,753.5C 2003.2,771.559 1998.2,789.226 1992,806.5C 1982.42,828.556 1974.42,851.222 1968,874.5C 1967.33,879.167 1967.33,883.833 1968,888.5C 1971.24,896.538 1977.08,899.371 1985.5,897C 1996.13,892.125 2005.8,885.791 2014.5,878C 2026.06,866.94 2037.06,855.44 2047.5,843.5C 2047.5,855.167 2047.5,866.833 2047.5,878.5C 2035.53,890.648 2023.19,902.148 2010.5,913C 1993.57,926.464 1974.91,936.797 1954.5,944C 1942.79,946.791 1931.13,946.791 1919.5,944C 1905.94,937.77 1897.44,927.27 1894,912.5C 1892.45,903.228 1892.11,893.895 1893,884.5C 1895.04,871.27 1898.04,858.27 1902,845.5C 1911.8,819.292 1921.13,792.959 1930,766.5C 1932.45,755.279 1928.28,751.446 1917.5,755C 1911.17,760 1904.83,765 1898.5,770C 1883.19,786.041 1868.19,802.541 1853.5,819.5C 1849.36,824.406 1845.86,829.739 1843,835.5C 1835.89,865.048 1832.56,895.048 1833,925.5C 1832.97,928.367 1832.14,930.867 1830.5,933C 1810.78,937.257 1791.12,941.757 1771.5,946.5C 1770.83,946.167 1770.17,945.833 1769.5,945.5C 1767.07,924.267 1765.9,902.934 1766,881.5C 1746.24,901.113 1724.74,918.446 1701.5,933.5C 1691.1,939.353 1680.1,943.519 1668.5,946C 1646.24,948.285 1630.74,939.119 1622,918.5C 1619.2,908.025 1617.86,897.358 1618,886.5C 1564,955.483 1496.84,1007.65 1416.5,1043C 1349.33,1071.54 1279.33,1089.88 1206.5,1098C 1186.99,1099.52 1167.65,1101.35 1148.5,1103.5C 1110.83,1103.5 1073.17,1103.5 1035.5,1103.5C 985.202,1099.84 935.202,1093.01 885.5,1083C 853.087,1075.31 821.42,1065.31 790.5,1053C 776.036,1046.54 763.202,1037.7 752,1026.5C 741.665,1012.83 732.998,998.162 726,982.5C 710.204,943.451 698.537,903.117 691,861.5C 670.164,738.464 673.497,616.131 701,494.5C 716.471,432.525 739.804,373.858 771,318.5C 798.038,274.799 829.872,235.299 866.5,200C 943.687,127.878 1032.02,73.211 1131.5,36C 1185.85,17.2574 1241.52,5.09069 1298.5,-0.5 Z M 1314.5,480.5 C 1318.5,480.5 1322.5,480.5 1326.5,480.5C 1326.5,486.167 1326.5,491.833 1326.5,497.5C 1322.5,497.5 1318.5,497.5 1314.5,497.5C 1314.5,491.833 1314.5,486.167 1314.5,480.5 Z M 1351.5,480.5 C 1355.5,480.5 1359.5,480.5 1363.5,480.5C 1363.5,505.167 1363.5,529.833 1363.5,554.5C 1364.68,554.719 1365.68,554.386 1366.5,553.5C 1378.89,540.789 1391.56,528.289 1404.5,516C 1408.83,515.333 1413.17,515.333 1417.5,516C 1407.46,525.708 1397.79,535.708 1388.5,546C 1400.15,564.99 1411.82,583.99 1423.5,603C 1418.47,603.829 1413.47,603.662 1408.5,602.5C 1398.84,586.043 1388.68,570.043 1378,554.5C 1373.34,559.132 1368.67,563.799 1364,568.5C 1363.5,580.162 1363.33,591.829 1363.5,603.5C 1359.5,603.5 1355.5,603.5 1351.5,603.5C 1351.5,562.5 1351.5,521.5 1351.5,480.5 Z M 1437.5,480.5 C 1441.83,480.5 1446.17,480.5 1450.5,480.5C 1450.5,486.167 1450.5,491.833 1450.5,497.5C 1446.17,497.5 1441.83,497.5 1437.5,497.5C 1437.5,491.833 1437.5,486.167 1437.5,480.5 Z M 1478.5,491.5 C 1482.83,491.5 1487.17,491.5 1491.5,491.5C 1491.5,499.5 1491.5,507.5 1491.5,515.5C 1496.5,515.5 1501.5,515.5 1506.5,515.5C 1506.5,518.833 1506.5,522.167 1506.5,525.5C 1501.5,525.5 1496.5,525.5 1491.5,525.5C 1491.17,548.51 1491.5,571.51 1492.5,594.5C 1496.96,596.302 1501.63,596.968 1506.5,596.5C 1506.5,599.833 1506.5,603.167 1506.5,606.5C 1498.46,608.537 1490.8,607.704 1483.5,604C 1481.38,602.269 1479.88,600.102 1479,597.5C 1478.5,573.502 1478.33,549.502 1478.5,525.5C 1474.83,525.5 1471.17,525.5 1467.5,525.5C 1467.5,522.167 1467.5,518.833 1467.5,515.5C 1471.17,515.5 1474.83,515.5 1478.5,515.5C 1478.5,507.5 1478.5,499.5 1478.5,491.5 Z M 1168.5,513.5 C 1183.98,511.161 1195.81,516.494 1204,529.5C 1205.15,532.393 1205.65,535.393 1205.5,538.5C 1200.83,538.5 1196.17,538.5 1191.5,538.5C 1191.83,531.996 1188.83,527.829 1182.5,526C 1173.16,523.151 1164.49,524.484 1156.5,530C 1152.34,537.187 1153.34,543.52 1159.5,549C 1171.83,552.667 1184.17,556.333 1196.5,560C 1210.44,569.272 1212.94,581.105 1204,595.5C 1195.39,603.597 1185.06,607.597 1173,607.5C 1165.52,607.504 1158.35,606.004 1151.5,603C 1143,597.561 1138.66,589.728 1138.5,579.5C 1142.85,579.334 1147.18,579.501 1151.5,580C 1152.51,589.013 1157.51,594.013 1166.5,595C 1173.56,595.788 1180.56,595.455 1187.5,594C 1198.07,587.386 1199.07,579.719 1190.5,571C 1179.17,567.667 1167.84,564.334 1156.5,561C 1142.48,555.462 1137.65,545.295 1142,530.5C 1146.06,522.877 1152.23,517.71 1160.5,515C 1163.36,514.817 1166.03,514.317 1168.5,513.5 Z M 1257.5,513.5 C 1275.42,512.032 1287.92,519.365 1295,535.5C 1295.5,538.146 1295.66,540.813 1295.5,543.5C 1291.5,543.5 1287.5,543.5 1283.5,543.5C 1279.66,527.73 1269.66,521.897 1253.5,526C 1247.75,528.079 1243.59,531.912 1241,537.5C 1235.03,552.847 1235.03,568.181 1241,583.5C 1245.29,592.103 1252.29,596.103 1262,595.5C 1265.89,595.406 1269.72,594.906 1273.5,594C 1280.24,589.315 1283.91,582.815 1284.5,574.5C 1288.5,574.5 1292.5,574.5 1296.5,574.5C 1295.39,591.885 1286.39,602.718 1269.5,607C 1249.39,609.649 1235.22,601.815 1227,583.5C 1220.3,563.857 1222.3,545.19 1233,527.5C 1239.58,519.799 1247.75,515.132 1257.5,513.5 Z M 1314.5,515.5 C 1318.5,515.5 1322.5,515.5 1326.5,515.5C 1326.5,544.833 1326.5,574.167 1326.5,603.5C 1322.5,603.5 1318.5,603.5 1314.5,603.5C 1314.5,574.167 1314.5,544.833 1314.5,515.5 Z M 1437.5,515.5 C 1441.83,515.5 1446.17,515.5 1450.5,515.5C 1450.5,544.833 1450.5,574.167 1450.5,603.5C 1446.17,603.5 1441.83,603.5 1437.5,603.5C 1437.5,574.167 1437.5,544.833 1437.5,515.5 Z M 1016.5,536.5 C 1021.74,535.538 1025.91,537.205 1029,541.5C 1034.29,549.715 1036.96,558.715 1037,568.5C 1038.72,608.623 1031.38,646.956 1015,683.5C 1007.43,698.973 999.099,713.973 990,728.5C 971.253,755.976 950.586,781.976 928,806.5C 925.609,825.299 925.109,844.133 926.5,863C 933.686,901.408 954.686,911.408 989.5,893C 1008.87,878.97 1027.03,863.47 1044,846.5C 1050.3,790.508 1076.47,746.841 1122.5,715.5C 1143.49,702.894 1166.16,698.061 1190.5,701C 1216.51,705.991 1231.17,721.658 1234.5,748C 1233.5,758.331 1230.5,767.998 1225.5,777C 1222.38,781.791 1218.88,786.291 1215,790.5C 1199.87,803.98 1183.04,814.814 1164.5,823C 1146.41,830.39 1128.08,837.223 1109.5,843.5C 1117.72,887.212 1143.72,905.045 1187.5,897C 1191.39,895.36 1195.39,894.027 1199.5,893C 1220.02,880.161 1238.52,864.661 1255,846.5C 1257.59,826.166 1263.92,807.166 1274,789.5C 1296.3,750.877 1328.13,722.71 1369.5,705C 1375.15,703.339 1380.82,701.672 1386.5,700C 1407.91,695.662 1426.08,701.162 1441,716.5C 1444.19,721.569 1447.36,726.569 1450.5,731.5C 1469.37,720.799 1488.37,710.299 1507.5,700C 1512.15,699.501 1516.82,699.334 1521.5,699.5C 1519.79,707.152 1517.95,714.819 1516,722.5C 1503.26,761.055 1491.93,800.055 1482,839.5C 1480.57,848.632 1479.41,857.799 1478.5,867C 1478.33,889.404 1488.67,896.737 1509.5,889C 1513.34,886.916 1517,884.583 1520.5,882C 1540.06,864.109 1558.56,845.275 1576,825.5C 1581.33,818.167 1586.67,810.833 1592,803.5C 1592.68,802.216 1592.52,801.049 1591.5,800C 1573.56,792.882 1566.06,779.715 1569,760.5C 1572.83,738.668 1582.99,720.501 1599.5,706C 1609.02,700.055 1619.35,698.055 1630.5,700C 1635.6,701.778 1639.43,704.945 1642,709.5C 1644.23,715.328 1644.89,721.328 1644,727.5C 1641.22,742.966 1637.05,757.966 1631.5,772.5C 1645.98,771.59 1658.98,766.756 1670.5,758C 1689.79,742.436 1704.79,723.436 1715.5,701C 1721.24,700.572 1726.91,700.239 1732.5,700C 1704,764.414 1667.5,823.581 1623,877.5C 1622.33,875.833 1622.33,874.167 1623,872.5C 1632.4,842.967 1645.56,815.301 1662.5,789.5C 1660.93,788.369 1659.26,788.202 1657.5,789C 1644.3,795.923 1630.3,800.59 1615.5,803C 1595.55,835.903 1571.22,864.57 1542.5,889C 1525.3,906.542 1506.63,922.209 1486.5,936C 1473.35,943.408 1459.35,945.741 1444.5,943C 1434.85,939.173 1427.69,932.673 1423,923.5C 1421.34,918.511 1419.67,913.511 1418,908.5C 1415.88,894.106 1414.71,879.772 1414.5,865.5C 1403.53,879.638 1392.36,893.638 1381,907.5C 1370.48,918.689 1358.65,928.356 1345.5,936.5C 1307.95,953.127 1280.11,943.127 1262,906.5C 1260.61,902.056 1258.94,897.723 1257,893.5C 1256.5,888.81 1255.83,884.143 1255,879.5C 1254.44,878.978 1253.77,878.645 1253,878.5C 1231.69,899.913 1207.86,918.08 1181.5,933C 1152.46,945.908 1122.79,947.575 1092.5,938C 1069.22,926.624 1054.06,908.457 1047,883.5C 1046.5,880.854 1046.34,878.187 1046.5,875.5C 1045.45,875.351 1044.45,875.517 1043.5,876C 1021.1,897.736 996.438,916.403 969.5,932C 954.261,939.685 938.095,943.852 921,944.5C 893.052,942.515 873.719,928.515 863,902.5C 857.468,887.845 854.968,872.679 855.5,857C 856.343,827.107 860.177,797.607 867,768.5C 884.481,697.256 909.981,629.256 943.5,564.5C 967.835,554.819 992.168,545.485 1016.5,536.5 Z"/></g>
<g><path style="opacity:0.994" fill="#000000" d="M -0.5,741.5 C -0.5,720.167 -0.5,698.833 -0.5,677.5C 6.44985,613.039 33.1165,558.539 79.5,514C 125.46,474.37 179.126,452.703 240.5,449C 293.434,446.722 344.434,455.388 393.5,475C 465.573,504.242 525.739,549.076 574,609.5C 606.212,657.648 626.545,710.648 635,768.5C 645.556,844.243 641.89,919.243 624,993.5C 619.289,1010.73 612.622,1027.06 604,1042.5C 601.146,1046.35 597.979,1049.85 594.5,1053C 585.597,1058.28 576.597,1063.28 567.5,1068C 515.689,1086.5 462.189,1095.34 407,1094.5C 331.964,1095.94 261.131,1079.77 194.5,1046C 169.928,1032.77 147.595,1016.43 127.5,997C 79.4906,949.511 43.6573,894.011 20,830.5C 10.3548,801.417 3.52147,771.75 -0.5,741.5 Z"/></g>
<g><path style="opacity:0.928" fill="#000000" d="M 1002.5,567.5 C 1008.2,566.436 1012.37,568.436 1015,573.5C 1017.94,587.07 1018.27,600.737 1016,614.5C 1002.89,672.405 976.385,723.072 936.5,766.5C 935.369,764.926 935.202,763.259 936,761.5C 944.715,721.799 954.715,682.465 966,643.5C 972.989,621.358 981.822,600.025 992.5,579.5C 995.539,575.139 998.873,571.139 1002.5,567.5 Z"/></g>
<g><path style="opacity:0.944" fill="#000000" d="M 1159.5,720.5 C 1170.19,720.371 1177.02,725.371 1180,735.5C 1184.49,763.483 1175.99,786.317 1154.5,804C 1140.17,813.817 1124.5,820.65 1107.5,824.5C 1105.66,791.897 1114.16,762.563 1133,736.5C 1139.79,727.489 1148.63,722.156 1159.5,720.5 Z"/></g>
<g><path style="opacity:0.965" fill="#000000" d="M 1396.5,720.5 C 1413,718.157 1423.83,724.824 1429,740.5C 1431.64,763.005 1429.31,785.005 1422,806.5C 1413.63,831.258 1401.63,853.924 1386,874.5C 1378.52,882.482 1369.69,888.315 1359.5,892C 1340.22,894.711 1328.72,886.544 1325,867.5C 1323.38,847.355 1325.71,827.689 1332,808.5C 1340.02,785.741 1350.68,764.407 1364,744.5C 1370.51,736.647 1378.01,729.814 1386.5,724C 1390.22,723.627 1393.55,722.461 1396.5,720.5 Z"/></g>
</svg>
