<?xml version="1.0" standalone="no"?>
<!DOCTYPE svg PUBLIC "-//W3C//DTD SVG 20010904//EN"
 "http://www.w3.org/TR/2001/REC-SVG-20010904/DTD/svg10.dtd">
<svg version="1.0" xmlns="http://www.w3.org/2000/svg"
 width="1008.000000pt" height="1008.000000pt" viewBox="0 0 1008.000000 1008.000000"
 preserveAspectRatio="xMidYMid meet">

<g transform="translate(0.000000,1008.000000) scale(0.100000,-0.100000)"
fill="#000000" stroke="none">
<path d="M6319 9814 c-195 -146 -355 -269 -357 -274 -3 -8 2618 -3541 2659
-3584 17 -19 26 -13 374 248 196 147 355 271 353 276 -2 8 -970 1310 -2446
3292 l-229 308 -354 -266z"/>
<path d="M4726 8298 c-217 -262 -282 -346 -273 -354 7 -7 783 -656 1726 -1444
1401 -1170 1716 -1429 1726 -1418 44 47 555 671 555 677 0 8 -3424 2873 -3440
2879 -5 2 -137 -151 -294 -340z"/>
<path d="M3500 6366 c-101 -222 -184 -407 -183 -411 3 -12 4067 -1904 4074
-1897 14 15 369 796 367 804 -3 8 -4054 1908 -4068 1908 -3 0 -88 -182 -190
-404z"/>
<path d="M2916 4719 c-16 -45 -183 -865 -177 -870 6 -6 4311 -910 4369 -917
17 -2 32 0 32 4 0 5 41 200 90 433 50 234 87 428 83 431 -5 4 -985 213 -2179
464 -1194 252 -2181 460 -2193 463 -13 3 -23 0 -25 -8z"/>
<path d="M840 1800 l0 -1800 4045 0 4045 0 0 1800 0 1800 -450 0 -450 0 0
-1350 0 -1350 -3145 0 -3145 0 0 1350 0 1350 -450 0 -450 0 0 -1800z"/>
<path d="M2632 2253 l3 -448 2248 -3 2247 -2 0 450 0 450 -2250 0 -2250 0 2
-447z"/>
</g>
</svg>
