<svg version="1.0" fill="#e9f4f3" xmlns="http://www.w3.org/2000/svg" width="1600" height="1926.667" viewBox="0 0 1200 1445"><path d="M724 2c-61.5 5.1-119.3 22.3-169.8 50.5-12 6.7-336.1 213.3-366.7 233.8C118.1 332.7 64.2 402.9 38.1 481 4.6 581.2 11.6 692.3 57.4 785.5l6.4 13-6.6 10.5c-7.7 12.1-24.2 44.5-29.1 57-13 32.9-20.9 65-25.8 105-2.4 19.9-2.4 68.6 0 88 7.9 63.4 26.3 117.7 56.9 168.4C120 1328 217.8 1400.5 332.5 1430c107.7 27.7 222.2 13.7 314-38.5 13.1-7.4 355.1-224.7 370.5-235.4 37.4-25.8 73.3-62.3 99-100.6 57.9-86 78.7-194.6 57.5-300.1-6.9-33.9-18-66.5-33.2-96.7l-5.4-10.8 5.4-8.7c33.4-53.5 51.5-109.1 57.6-177.2 1.4-14.7 1.4-52 .1-67.5-4-46.1-15.9-91.6-35-133.6-19.4-42.7-50.3-87.5-84.9-123.2-37.4-38.6-76.1-66.8-123.6-90.2C906.8 24 858.2 9.8 804 3.4 788.2 1.6 739.7.7 724 2zm58 163c65.8 4.5 124.8 31 171.1 77 15.9 15.9 23.6 25.2 36.8 45.1 22.2 33.2 35.8 70.6 40 110.1 2.5 22.9.7 58.4-3.9 77.8-2.5 10.5-11.9 41.2-13 42.3-.4.5-8.3-4.6-17.6-11.2-41-29.2-85.6-51.6-129.9-65.3l-14-4.3v-16c0-18.7-1.1-24.1-8.1-38.2-7.5-15.2-21.8-28.7-37.9-35.9-13.8-6-33.8-8.1-48.5-5-16 3.4-15.4 3.1-192.7 116.4-93.7 59.8-172.8 110.7-175.9 113.2-10.7 8.5-19.8 23.5-23 37.8-2.5 11-1.6 28 2 38.7 7 20.7 20.2 35.7 40.1 45.6 12.5 6.2 21.5 8.2 36 8.1 12.7-.1 22.4-2.2 33.7-7.5 4-1.8 36.6-22 72.3-44.8 73.4-46.8 73.6-47 86.2-53.3 54.8-27.3 118-33.6 179.6-17.6 45.3 11.7 86.8 35.3 120.3 68.5 33.7 33.4 57.4 72.7 69.4 115.1 7.7 27 10.8 62.1 8.1 91.1-6 64.7-39.3 124.2-91.6 163.5-10.2 7.6-358.1 229-369.5 235.1-26.9 14.4-58.6 24.2-90 27.8-15.1 1.7-46 1.5-60.8-.5-60-8-110.7-32.3-153.3-73.4-34.6-33.3-60.6-76.6-72-119.6-12.7-48.3-11-95.5 5.3-148.4 2.1-6.7 3.6-10.1 4.4-9.8.6.2 7 4.6 14 9.7 42.7 30.7 85.1 52.1 132.5 67l13.7 4.3-.2 15c-.1 13 .2 16.2 2.2 23.1 6.6 22.7 20 39.5 40.3 50.4 11.5 6.1 19.5 8.2 33.5 8.8 14 .6 22-.8 34.9-6 5.7-2.4 54.9-33.3 170.5-107.1 89.4-57.1 166.3-106.3 170.9-109.3 18.1-11.8 29.1-25.8 33.5-43.1 8.9-34.4-8.2-70.9-40.9-87.2-12.5-6.2-23.2-8.3-39-7.8-13.9.5-22.3 2.6-33.8 8.4-2.8 1.5-33.5 20.8-68.3 43-78.1 49.8-74.3 47.5-89.2 54.7-22.2 10.6-49.6 18.4-78.4 22.3-16.6 2.3-48.9 2.3-65.8 0-50.7-6.8-97.8-27.1-136.2-58.8C268 805 249.2 786 240.5 775c-28.6-35.9-47.6-79.4-54.2-123.7-2.1-14.6-2.4-50.4-.5-63.8 6.5-45.1 20.3-79 46.1-113.5 11.1-14.8 29.6-33.3 44.1-44.1 12.3-9.1 352-225.7 368-234.6 30.7-17.1 67.4-27.8 103.5-30.3 16.2-1.1 18.6-1.1 34.5 0z"/></svg>