<?xml version="1.0" standalone="no"?>
<!DOCTYPE svg PUBLIC "-//W3C//DTD SVG 20010904//EN"
 "http://www.w3.org/TR/2001/REC-SVG-20010904/DTD/svg10.dtd">
<svg version="1.0" xmlns="http://www.w3.org/2000/svg"
 width="1008.000000pt" height="1008.000000pt" viewBox="0 0 1008.000000 1008.000000"
 preserveAspectRatio="xMidYMid meet">

<g transform="translate(0.000000,1008.000000) scale(0.100000,-0.100000)"
fill="#000000" stroke="none">
<path d="M4780 10060 c-14 -11 -36 -26 -50 -33 -45 -24 -74 -42 -88 -54 -7 -7
-18 -13 -23 -13 -5 0 -28 -12 -52 -27 -23 -14 -68 -40 -100 -57 -97 -52 -129
-70 -193 -109 -34 -20 -66 -37 -72 -37 -5 0 -12 -7 -16 -15 -3 -8 -13 -15 -22
-15 -9 0 -28 -8 -42 -17 -52 -34 -67 -43 -120 -69 -29 -15 -55 -30 -58 -35 -3
-5 -29 -20 -57 -34 -29 -14 -72 -38 -97 -54 -25 -16 -53 -30 -62 -30 -10 -1
-18 -8 -18 -16 0 -8 -7 -15 -16 -15 -9 0 -30 -10 -47 -22 -18 -13 -34 -23 -37
-23 -3 0 -16 -8 -30 -17 -27 -17 -49 -29 -147 -79 -34 -17 -68 -37 -74 -45 -6
-8 -16 -14 -22 -14 -5 0 -25 -11 -42 -25 -18 -13 -35 -22 -38 -19 -3 4 -21 -5
-39 -18 -45 -31 -62 -42 -138 -83 -146 -80 -176 -97 -190 -109 -8 -6 -33 -21
-55 -31 -22 -11 -41 -23 -43 -27 -2 -5 -9 -8 -16 -8 -7 0 -32 -14 -54 -30 -23
-17 -42 -27 -42 -24 0 4 -8 1 -17 -7 -10 -8 -31 -21 -48 -29 -16 -8 -37 -20
-46 -27 -9 -7 -42 -27 -75 -43 -64 -33 -83 -44 -130 -77 -17 -12 -34 -20 -37
-17 -3 3 -29 -12 -59 -33 -29 -21 -82 -54 -118 -71 -101 -51 -171 -90 -189
-105 -9 -8 -35 -22 -58 -33 -24 -10 -43 -21 -43 -26 0 -4 -5 -8 -10 -8 -6 0
-29 -12 -53 -27 -23 -15 -48 -26 -55 -25 -6 2 -12 -2 -12 -7 0 -6 -17 -18 -37
-28 -21 -9 -49 -25 -63 -35 -25 -17 -70 -43 -160 -90 -25 -13 -49 -29 -53 -36
-5 -7 -12 -10 -18 -7 -5 4 -9 1 -9 -4 0 -6 -6 -11 -13 -11 -8 0 -32 -12 -53
-28 -21 -15 -61 -38 -89 -52 -27 -13 -64 -35 -81 -47 -17 -13 -37 -23 -44 -23
-7 0 -27 -11 -44 -23 -17 -13 -49 -32 -71 -42 -22 -11 -44 -25 -48 -32 -4 -7
-16 -13 -25 -13 -9 0 -28 -9 -42 -20 -14 -11 -30 -20 -37 -20 -7 0 -16 -6 -20
-13 -4 -7 -30 -24 -58 -36 -27 -13 -62 -32 -77 -42 -14 -11 -33 -19 -42 -19
-9 0 -16 -4 -16 -10 0 -5 -4 -10 -9 -10 -5 0 -25 -10 -45 -22 l-35 -23 -1
-1137 c0 -630 4 -1138 9 -1138 4 0 25 11 45 25 20 13 36 22 36 19 0 -3 12 4
27 16 16 12 43 28 60 35 18 8 33 19 33 24 0 6 7 11 16 11 9 0 30 10 47 22 18
13 38 22 44 20 7 -2 13 4 13 13 0 8 7 15 15 15 19 0 56 20 72 40 7 8 13 11 13
7 0 -5 12 1 26 12 15 12 32 21 39 21 7 0 36 16 64 35 28 19 56 35 62 35 7 0
27 11 45 25 18 14 37 25 43 25 6 0 11 3 11 8 0 4 8 12 19 17 10 6 51 28 91 50
40 22 90 49 111 61 20 11 45 26 53 33 9 8 16 11 16 7 0 -3 19 7 42 24 22 16
47 30 55 30 7 0 13 4 13 9 0 5 8 11 18 14 9 3 40 20 67 36 28 17 66 39 85 48
19 10 38 23 42 28 4 6 11 10 15 10 4 0 22 10 40 23 17 12 37 22 44 22 7 0 20
6 28 14 9 7 41 26 71 42 30 16 59 35 63 41 4 7 15 13 24 13 8 0 37 16 63 35
26 19 53 35 60 35 6 0 35 15 63 34 29 18 69 41 90 51 20 9 37 21 37 26 0 5 6
9 13 9 8 0 32 13 53 28 21 15 61 38 88 51 28 13 64 33 80 46 17 12 53 33 81
46 71 34 85 43 85 51 0 5 9 8 20 8 10 0 23 6 27 13 4 6 22 19 38 27 17 8 43
23 60 35 31 21 74 45 81 45 2 0 4 -1311 4 -2912 0 -1602 4 -2919 9 -2926 9
-15 44 -37 74 -48 9 -3 17 -10 17 -15 0 -5 9 -9 20 -9 11 0 20 -7 20 -15 0 -9
6 -15 13 -13 6 2 26 -7 44 -20 17 -12 35 -22 41 -22 5 0 15 -6 21 -14 6 -8 40
-28 74 -45 98 -50 120 -62 147 -79 14 -9 29 -15 33 -14 4 1 10 -5 13 -13 4 -8
11 -15 16 -15 5 0 24 -10 41 -22 17 -13 49 -32 72 -44 79 -40 160 -86 176
-100 8 -8 20 -14 25 -14 5 0 20 -9 34 -20 14 -11 30 -20 37 -20 7 0 40 -20 75
-44 35 -24 86 -54 113 -67 28 -12 64 -33 81 -46 17 -13 38 -23 47 -23 10 0 17
-4 17 -10 0 -5 4 -10 9 -10 5 0 32 -16 61 -35 29 -19 58 -35 66 -35 8 0 14 -4
14 -9 0 -5 26 -22 57 -38 82 -40 93 -47 93 -55 0 -5 7 -8 16 -8 9 0 38 -16 64
-35 34 -25 58 -35 84 -35 l36 0 0 5040 0 5040 -27 0 c-16 0 -39 -9 -53 -20z"/>
<path d="M5220 5040 l0 -5040 29 0 c31 0 58 12 108 48 17 12 38 22 47 22 9 0
16 5 16 10 0 6 7 10 15 10 7 0 18 6 22 13 4 7 26 21 48 32 22 10 54 29 71 42
17 12 36 23 41 23 6 0 34 16 62 35 28 19 56 35 62 35 7 0 26 10 43 23 17 12
49 31 71 42 22 11 44 26 48 33 4 6 15 12 23 12 9 0 36 14 62 32 26 18 70 43
97 57 28 13 61 33 75 44 14 10 40 25 58 32 17 8 32 19 32 24 0 6 8 11 18 11 9
0 28 9 42 20 14 11 33 20 43 20 9 0 17 7 17 15 0 8 7 15 16 15 9 0 30 10 47
22 18 13 34 23 37 23 3 0 19 10 37 23 17 12 36 22 41 22 6 0 38 18 71 40 33
22 67 40 75 40 8 0 19 6 23 13 4 6 22 19 38 27 17 8 44 25 61 37 17 13 38 23
47 23 10 0 17 4 17 9 0 5 8 11 18 15 9 3 31 14 47 24 l30 19 3 1396 c2 1233 4
1397 17 1397 8 0 15 -4 15 -10 0 -5 5 -10 10 -10 6 0 23 -8 38 -18 75 -51 143
-92 153 -92 7 0 26 -10 43 -23 17 -12 45 -29 61 -37 17 -8 60 -34 98 -57 37
-24 72 -43 77 -43 6 0 10 -4 10 -10 0 -5 6 -10 13 -10 7 0 33 -13 58 -28 24
-16 69 -41 99 -57 30 -16 62 -34 70 -41 14 -11 46 -29 180 -101 24 -13 46 -27
50 -31 3 -4 19 -14 35 -22 17 -7 44 -24 60 -35 17 -12 50 -32 75 -44 25 -12
57 -29 71 -38 14 -9 33 -13 42 -10 16 6 17 81 15 984 l-3 977 -55 38 c-30 20
-61 37 -69 37 -8 1 -28 12 -45 25 -17 13 -56 36 -86 52 -30 15 -89 49 -130 74
-41 25 -88 52 -105 60 -16 8 -44 25 -61 37 -17 13 -37 23 -44 23 -7 0 -28 12
-47 26 -18 14 -54 34 -78 45 -25 11 -45 24 -45 29 0 6 -8 10 -17 10 -10 0 -29
9 -43 20 -14 11 -30 20 -37 20 -7 0 -24 11 -39 25 -15 14 -33 25 -41 25 -8 0
-37 16 -66 35 -28 19 -57 35 -62 35 -6 0 -27 12 -46 26 -19 14 -53 34 -76 45
-24 11 -43 24 -43 29 0 6 -8 10 -19 10 -10 0 -22 6 -27 13 -5 6 -7 247 -4 542
3 292 9 524 13 518 5 -7 15 -13 23 -13 9 0 30 -11 48 -25 18 -14 38 -25 44
-25 7 0 12 -3 12 -8 0 -7 9 -13 76 -47 21 -11 57 -31 79 -46 22 -15 56 -34 75
-43 19 -9 53 -27 75 -41 22 -14 48 -28 57 -31 9 -3 19 -12 22 -20 3 -8 13 -14
21 -14 9 0 40 -16 69 -35 29 -19 56 -35 59 -35 4 0 36 -18 72 -40 36 -22 69
-40 74 -40 5 0 32 -16 60 -35 28 -19 53 -35 56 -35 4 0 21 -11 39 -25 18 -14
39 -25 46 -25 7 0 39 -18 71 -40 32 -22 64 -40 70 -40 7 0 26 -10 43 -23 17
-13 48 -31 68 -40 20 -10 38 -21 40 -26 2 -4 23 -18 48 -30 51 -24 123 -64
160 -89 14 -9 27 -17 30 -17 3 0 19 -10 37 -23 17 -12 36 -22 41 -22 6 0 33
-16 62 -35 29 -19 58 -35 64 -35 7 0 30 -13 52 -30 21 -16 43 -30 47 -30 5 0
23 -11 41 -25 18 -14 39 -25 46 -25 7 0 27 -10 44 -23 17 -13 57 -36 89 -52
31 -16 62 -34 68 -42 7 -7 16 -13 22 -13 5 0 25 -11 43 -25 18 -14 37 -25 42
-25 7 0 106 -56 197 -112 11 -7 22 -12 25 -13 3 0 19 -10 37 -23 17 -12 36
-22 42 -22 17 0 16 2261 -1 2278 -7 7 -20 12 -30 12 -10 0 -18 7 -18 15 0 8
-7 15 -17 15 -9 0 -31 11 -50 26 -18 14 -33 22 -33 18 0 -4 -8 0 -17 8 -10 9
-36 24 -58 34 -22 10 -54 28 -71 41 -17 13 -38 23 -47 23 -10 0 -17 3 -17 8 0
8 -7 12 -86 52 -27 14 -50 28 -52 32 -2 3 -32 20 -67 37 -35 17 -65 34 -67 38
-1 5 -25 19 -53 33 -27 13 -64 35 -81 47 -17 13 -36 23 -43 23 -6 0 -34 16
-63 35 -28 19 -61 38 -74 41 -13 3 -24 10 -24 15 0 4 -20 17 -44 27 -24 11
-47 25 -50 31 -4 6 -11 9 -16 6 -4 -3 -13 2 -20 10 -7 8 -17 15 -21 15 -5 0
-38 18 -73 40 -35 22 -68 40 -73 40 -6 0 -34 16 -62 35 -28 19 -55 35 -60 35
-4 0 -14 7 -21 15 -7 8 -16 13 -20 10 -4 -3 -10 2 -14 10 -3 8 -13 15 -22 15
-10 0 -31 10 -48 23 -17 12 -58 36 -91 52 -33 16 -74 39 -91 52 -17 13 -37 23
-44 23 -7 0 -28 11 -46 25 -18 14 -36 25 -41 25 -4 0 -26 14 -47 30 -22 17
-45 30 -51 30 -7 0 -28 11 -48 24 -19 13 -38 22 -41 19 -3 -3 -8 2 -12 11 -3
9 -13 16 -21 16 -8 0 -29 10 -46 22 -18 13 -34 23 -37 23 -3 0 -19 10 -37 23
-17 12 -36 22 -42 22 -5 0 -30 14 -54 30 -25 17 -49 30 -55 30 -5 0 -15 6 -22
14 -6 8 -18 12 -26 9 -8 -3 -14 1 -14 11 0 9 -7 16 -17 16 -9 0 -30 10 -47 23
-17 12 -44 29 -61 37 -16 8 -58 32 -93 52 -34 21 -69 38 -77 38 -8 0 -15 7
-15 15 0 9 -6 15 -13 13 -6 -2 -26 7 -44 20 -17 12 -36 22 -42 22 -5 0 -22 11
-37 25 -15 14 -33 25 -41 25 -8 0 -27 9 -43 20 -15 11 -30 16 -34 12 -4 -4
-12 1 -17 11 -6 9 -15 17 -20 17 -6 0 -25 10 -42 22 -18 13 -34 23 -37 23 -3
0 -19 10 -37 23 -17 12 -38 22 -46 22 -8 0 -19 6 -25 13 -6 7 -33 24 -61 37
-28 14 -51 28 -51 33 0 4 -26 20 -57 35 -80 38 -93 46 -93 54 0 5 -7 8 -16 8
-8 0 -47 20 -85 45 -38 25 -74 45 -79 45 -5 0 -29 14 -53 30 -25 17 -52 30
-61 30 -9 0 -16 5 -16 11 0 5 -19 19 -43 29 -24 11 -54 28 -68 37 -13 10 -37
25 -54 33 -16 8 -58 32 -92 53 -35 20 -69 37 -77 37 -7 0 -19 6 -25 13 -6 8
-32 25 -58 38 -27 13 -52 29 -56 36 -4 7 -17 13 -27 13 -11 0 -20 5 -20 10 0
6 -11 10 -25 10 l-25 0 0 -5040z"/>
</g>
</svg>
